<?xml version="1.0" standalone="no"?>
<!DOCTYPE svg PUBLIC "-//W3C//DTD SVG 20010904//EN"
 "http://www.w3.org/TR/2001/REC-SVG-20010904/DTD/svg10.dtd">
<svg version="1.0" xmlns="http://www.w3.org/2000/svg"
 width="512.000000pt" height="512.000000pt" viewBox="0 0 512.000000 512.000000"
 preserveAspectRatio="xMidYMid meet">

<g transform="translate(0.000000,512.000000) scale(0.100000,-0.100000)"
fill="#000000" stroke="none">
<path d="M819 3417 c-41 -12 -97 -36 -125 -52 -71 -41 -157 -133 -193 -207
-59 -119 -61 -143 -61 -800 l0 -598 -150 0 c-169 0 -197 -8 -230 -63 -25 -41
-25 -73 0 -114 41 -69 -178 -63 2515 -61 l2437 3 29 32 c51 58 51 108 0 166
l-29 32 -166 3 -166 3 0 597 c0 658 -2 680 -61 801 -42 84 -136 178 -220 220
-127 62 -120 62 -1077 59 l-867 -3 -67 -33 c-79 -39 -129 -93 -158 -169 -18
-49 -20 -78 -20 -304 0 -254 -3 -279 -39 -306 -26 -20 -76 -15 -97 8 -16 18
-20 42 -25 163 -6 169 -24 219 -100 291 -71 66 -117 85 -214 85 -64 0 -91 -5
-132 -24 -64 -30 -122 -87 -154 -152 -24 -49 -24 -52 -29 -432 l-5 -384 -28
-24 c-31 -27 -45 -29 -80 -13 -44 20 -47 44 -47 337 0 259 -1 279 -20 310 -22
36 -54 52 -107 52 -27 0 -43 -8 -70 -35 l-34 -34 3 -328 3 -328 30 -54 c100
-180 348 -215 494 -70 22 22 50 61 63 87 23 46 23 53 26 412 1 201 4 375 7
387 14 59 84 81 129 41 25 -22 26 -28 29 -163 4 -164 19 -210 94 -287 64 -66
129 -92 223 -92 124 1 223 62 277 172 l28 57 5 278 5 279 24 19 c23 19 47 19
900 17 l876 -3 40 -22 c47 -25 105 -84 131 -133 18 -33 19 -73 22 -657 l3
-623 -1881 0 -1881 0 3 623 c3 616 3 622 25 662 46 86 147 155 226 155 53 0
81 -26 95 -88 14 -62 36 -90 82 -102 51 -14 81 -6 116 32 26 27 29 36 28 96
-3 211 -214 346 -435 279z"/>
</g>
</svg>
