<?xml version="1.0" standalone="no"?>
<!DOCTYPE svg PUBLIC "-//W3C//DTD SVG 20010904//EN"
 "http://www.w3.org/TR/2001/REC-SVG-20010904/DTD/svg10.dtd">
<svg version="1.0" xmlns="http://www.w3.org/2000/svg"
 width="512.000000pt" height="512.000000pt" viewBox="0 0 512.000000 512.000000"
 preserveAspectRatio="xMidYMid meet">

<g transform="translate(0.000000,512.000000) scale(0.100000,-0.100000)"
fill="#000000" stroke="none">
<path d="M2400 4469 c-258 -29 -503 -119 -712 -260 -126 -86 -325 -285 -407
-408 -198 -298 -288 -637 -261 -975 18 -216 57 -444 84 -491 27 -46 80 -96
125 -120 32 -16 363 -75 573 -100 133 -17 138 -17 170 2 18 10 41 34 52 52 17
29 18 39 8 75 -6 22 -8 43 -6 46 22 22 656 37 873 21 85 -6 156 -12 157 -14 1
-1 37 -191 80 -422 88 -478 96 -573 57 -677 -51 -137 -166 -248 -304 -295 -47
-16 -90 -18 -339 -18 l-285 0 -66 28 c-131 55 -237 168 -278 295 -31 92 -27
188 15 421 35 194 36 199 19 235 -38 79 -154 90 -201 19 -26 -40 -86 -402 -87
-523 -2 -276 153 -525 398 -641 146 -70 174 -74 500 -74 249 0 299 3 355 18
250 70 441 261 511 512 37 135 31 235 -38 610 -40 217 -56 322 -49 326 6 3 52
12 101 18 149 20 400 69 438 85 54 22 122 90 146 146 13 30 32 122 48 232 36
244 38 480 4 638 -89 419 -315 757 -661 987 -296 198 -673 291 -1020 252z
m365 -250 c94 -14 234 -54 313 -90 l65 -29 -33 -23 c-49 -33 -72 -70 -77 -124
-4 -41 2 -62 36 -135 109 -235 158 -557 132 -868 -27 -310 -27 -318 13 -410 6
-14 -6 -14 -106 -3 -174 20 -726 28 -919 14 -199 -15 -413 -41 -614 -77 -82
-14 -173 -28 -202 -31 l-51 -5 -11 38 c-23 81 -51 342 -51 470 0 151 18 271
60 397 17 48 30 99 30 113 0 30 22 75 46 95 9 8 36 43 59 79 89 140 203 265
316 350 283 211 622 293 994 239z"/>
</g>
</svg>
