<svg width="32" height="32" viewBox="0 0 14 12" fill="none" xmlns="http://www.w3.org/2000/svg">
<path fill-rule="evenodd" clip-rule="evenodd" d="M5.63333 10.9507C5.47777 11.0058 5.3111 11.0334 5.13333 11.0334C4.95555 11.0334 4.78888 11.0058 4.63333 10.9507C4.47777 10.8947 4.33332 10.8 4.19999 10.6667L0.399992 6.86669C0.155547 6.62225 0.0333252 6.31114 0.0333252 5.93336C0.0333252 5.55558 0.155547 5.24447 0.399992 5.00002C0.666658 4.73336 0.977769 4.60002 1.33332 4.60002C1.68888 4.60002 1.98888 4.72225 2.23333 4.96669L5.13333 7.86669L11.7333 1.26669C11.9778 1.02225 12.2889 0.900024 12.6667 0.900024C13.0444 0.900024 13.3555 1.02225 13.6 1.26669C13.8667 1.53336 14 1.84447 14 2.20002C14 2.55558 13.8778 2.85558 13.6333 3.10002L6.06666 10.6667C5.93333 10.8 5.78888 10.8947 5.63333 10.9507Z" fill="currentColor"/>
</svg>
