<?xml version="1.0" standalone="no"?>
<!DOCTYPE svg PUBLIC "-//W3C//DTD SVG 20010904//EN"
 "http://www.w3.org/TR/2001/REC-SVG-20010904/DTD/svg10.dtd">
<svg version="1.0" xmlns="http://www.w3.org/2000/svg"
 width="512.000000pt" height="512.000000pt" viewBox="0 0 512.000000 512.000000"
 preserveAspectRatio="xMidYMid meet">

<g transform="translate(0.000000,512.000000) scale(0.100000,-0.100000)"
fill="#000000" stroke="none">
<path d="M1447 4669 c-91 -22 -178 -95 -219 -184 l-23 -50 -3 -830 c-2 -822
-2 -830 18 -863 12 -20 37 -41 60 -50 l40 -17 0 -77 0 -78 -232 0 c-213 0
-236 -2 -265 -20 -65 -39 -63 -23 -63 -622 0 -521 1 -544 20 -575 31 -51 68
-64 173 -62 51 1 101 6 112 12 11 6 262 86 558 178 l538 167 917 -487 917
-486 5 -51 c6 -60 29 -98 72 -120 37 -19 91 -13 120 13 47 42 48 52 48 422 l0
349 29 7 c29 6 60 34 80 72 8 15 11 182 11 566 l0 544 -23 34 c-37 54 -54 59
-244 59 l-173 0 -2 958 -3 957 -23 50 c-30 65 -102 138 -166 167 l-51 23
-1095 2 c-619 1 -1111 -3 -1133 -8z m2186 -240 c14 -6 30 -22 36 -36 8 -17 11
-271 11 -868 l0 -845 -99 0 -99 0 -4 173 c-3 189 -12 220 -75 278 -66 62 -78
64 -323 64 -211 0 -227 -1 -265 -22 -47 -25 -85 -64 -111 -113 -16 -29 -19
-63 -22 -207 l-4 -173 -118 0 -118 0 -4 173 c-3 144 -6 178 -22 207 -26 49
-64 88 -111 113 -38 21 -54 22 -265 22 -245 0 -257 -2 -323 -64 -63 -58 -72
-89 -75 -278 l-4 -173 -141 0 c-131 1 -140 2 -115 16 60 32 58 -2 58 873 0
567 3 807 11 825 6 13 21 29 33 34 31 15 2116 16 2149 1z m487 -2544 c0 -217
-2 -395 -5 -395 -8 0 -1471 475 -1728 561 -114 38 -219 69 -233 69 -14 0 -133
-60 -265 -132 -266 -147 -275 -155 -267 -238 l5 -47 -84 -47 -84 -47 -35 31
c-28 24 -44 30 -79 30 -38 0 -52 -6 -83 -34 -34 -32 -37 -39 -37 -88 0 -29 -4
-59 -8 -66 -5 -7 -31 -24 -59 -38 l-50 -26 -27 26 c-14 13 -38 28 -53 31 l-28
7 0 399 0 399 1560 0 1560 0 0 -395z"/>
<path d="M1770 4227 c-47 -15 -103 -74 -118 -123 -17 -57 -17 -471 0 -528 16
-52 72 -108 124 -124 57 -17 471 -17 528 0 52 16 108 72 124 124 17 57 17 471
0 528 -16 52 -72 108 -124 124 -53 15 -484 15 -534 -1z"/>
<path d="M2860 4231 c-70 -22 -121 -65 -156 -131 -17 -31 -19 -60 -19 -260 0
-200 2 -229 19 -260 26 -49 64 -88 111 -113 38 -21 54 -22 265 -22 200 0 229
2 260 19 49 26 88 64 113 111 21 38 22 54 22 265 0 211 -1 227 -22 265 -25 47
-64 85 -113 111 -31 17 -62 19 -245 21 -115 1 -221 -2 -235 -6z"/>
<path d="M943 1061 c-59 -37 -63 -56 -63 -303 0 -204 2 -226 20 -255 38 -62
123 -80 172 -36 46 41 49 60 48 309 l-1 236 -30 30 c-38 40 -99 48 -146 19z"/>
</g>
</svg>
