<?xml version="1.0" standalone="no"?>
<!DOCTYPE svg PUBLIC "-//W3C//DTD SVG 20010904//EN"
 "http://www.w3.org/TR/2001/REC-SVG-20010904/DTD/svg10.dtd">
<svg version="1.0" xmlns="http://www.w3.org/2000/svg"
 width="512.000000pt" height="512.000000pt" viewBox="0 0 512.000000 512.000000"
 preserveAspectRatio="xMidYMid meet">

<g transform="translate(0.000000,512.000000) scale(0.100000,-0.100000)"
fill="#000000" stroke="none">
<path d="M2435 4425 c-96 -21 -168 -52 -243 -105 -64 -45 -163 -148 -174 -181
-3 -10 -23 -8 -91 6 -243 51 -505 -47 -642 -239 -89 -126 -127 -236 -129 -372
l-1 -81 -75 -39 c-150 -77 -303 -268 -286 -358 4 -19 20 -49 36 -65 68 -68
139 -46 212 66 57 87 134 145 230 174 80 24 115 50 135 96 12 30 12 44 -3 114
-15 68 -16 89 -5 146 24 132 111 246 229 301 50 24 69 27 162 27 98 0 110 -2
174 -32 85 -41 133 -43 175 -8 16 14 35 42 42 63 17 52 75 137 118 173 20 16
61 42 91 56 47 23 69 27 144 28 l90 0 6 -30 c16 -73 61 -127 147 -175 114 -65
202 -171 244 -298 25 -74 31 -217 12 -284 l-11 -37 40 -6 c69 -12 177 -74 243
-140 174 -173 203 -451 70 -652 -75 -113 -199 -198 -322 -223 -105 -20 -102
-18 -129 -98 -13 -40 -44 -113 -69 -161 -42 -85 -47 -90 -92 -107 -140 -50
-184 -71 -245 -111 -83 -54 -138 -116 -183 -207 -47 -91 -47 -136 -2 -181 67
-67 149 -52 196 36 68 127 99 152 257 210 138 50 230 105 314 188 120 117 151
191 114 262 -14 28 -14 32 2 50 21 24 128 77 169 85 27 5 32 1 50 -33 12 -23
34 -45 57 -56 59 -29 91 -16 173 68 82 84 130 105 240 105 72 0 202 -27 249
-52 l24 -13 -84 -115 c-47 -63 -113 -155 -146 -205 -227 -333 -486 -513 -860
-597 -87 -20 -133 -22 -703 -27 -541 -5 -613 -8 -640 -22 -61 -34 -96 -97 -98
-174 l-1 -53 -67 19 c-394 109 -691 393 -824 789 -38 114 -69 156 -121 166
-61 11 -127 -37 -140 -104 -6 -31 49 -211 97 -319 63 -140 217 -346 337 -450
193 -169 417 -281 672 -339 60 -13 144 -18 413 -21 l337 -5 35 35 c19 19 35
44 35 56 0 20 4 21 140 21 l139 0 -29 -62 c-34 -72 -40 -150 -14 -199 19 -38
75 -63 119 -55 43 8 85 51 85 87 0 37 17 79 38 95 12 10 65 13 197 14 219 0
337 12 473 46 264 65 475 186 672 384 163 164 273 348 351 590 31 96 47 131
70 153 30 27 31 28 144 25 112 -3 115 -2 141 24 52 52 41 171 -29 303 -45 84
-122 159 -204 198 -65 31 -73 32 -188 32 -107 0 -129 -3 -198 -28 -69 -25 -82
-27 -108 -17 -16 7 -28 16 -27 19 2 3 11 27 22 53 16 40 23 47 53 53 47 8 81
31 99 66 33 65 6 247 -58 377 -45 93 -179 227 -269 271 l-66 32 -6 102 c-8
160 -57 282 -164 406 -55 64 -166 137 -256 169 -96 34 -271 42 -367 18 -37
-10 -66 -13 -69 -7 -3 5 -24 31 -45 57 -150 185 -407 279 -631 229z"/>
<path d="M2317 3680 c-115 -37 -177 -102 -161 -173 21 -96 103 -124 215 -72
67 31 98 31 184 1 80 -28 115 -23 158 24 31 35 36 93 12 140 -43 82 -265 126
-408 80z"/>
<path d="M1792 3249 c-55 -11 -141 -50 -189 -86 -56 -43 -120 -137 -143 -210
-27 -87 -27 -187 0 -231 65 -106 220 -60 220 66 0 101 40 170 118 204 37 17
56 18 132 12 l89 -7 36 36 c29 29 35 42 35 76 0 84 -37 120 -145 140 -66 12
-91 12 -153 0z"/>
<path d="M1058 2634 c-43 -8 -105 -25 -138 -38 -60 -25 -61 -25 -103 -7 -82
34 -142 46 -237 45 -111 -1 -175 -21 -255 -82 -99 -75 -183 -226 -192 -347 -4
-52 -2 -64 18 -89 45 -58 123 -67 172 -22 14 13 34 54 47 92 72 220 166 258
403 162 86 -35 77 -36 223 16 190 68 345 51 434 -47 89 -99 86 -97 130 -97
117 0 167 100 100 202 -121 183 -340 260 -602 212z"/>
<path d="M1954 2224 c-39 -19 -64 -62 -64 -112 0 -31 9 -52 43 -98 58 -79 164
-176 221 -204 76 -36 152 -9 176 65 19 58 0 96 -82 162 -39 32 -92 84 -117
117 -67 85 -111 103 -177 70z"/>
</g>
</svg>
