<?xml version="1.0" standalone="no"?>
<!DOCTYPE svg PUBLIC "-//W3C//DTD SVG 20010904//EN"
 "http://www.w3.org/TR/2001/REC-SVG-20010904/DTD/svg10.dtd">
<svg version="1.0" xmlns="http://www.w3.org/2000/svg"
 width="512.000000pt" height="512.000000pt" viewBox="0 0 512.000000 512.000000"
 preserveAspectRatio="xMidYMid meet">

<g transform="translate(0.000000,512.000000) scale(0.100000,-0.100000)"
fill="#000000" stroke="none">
<path d="M2560 4360 c-452 -63 -884 -263 -1181 -547 -176 -169 -293 -330 -405
-558 -99 -201 -165 -407 -206 -635 -21 -119 -18 -512 5 -625 27 -131 73 -266
130 -382 l50 -102 -24 -53 c-19 -44 -23 -70 -24 -153 0 -92 3 -105 32 -167 94
-199 328 -287 527 -199 l45 19 65 -34 c218 -116 460 -173 733 -174 500 -1
1023 197 1398 529 394 348 664 968 665 1524 0 255 -49 481 -152 696 l-50 104
31 61 c83 167 49 351 -88 478 -83 78 -147 102 -272 102 -90 1 -99 -1 -169 -36
l-74 -36 -88 44 c-108 54 -239 99 -367 126 -109 22 -467 33 -581 18z m391
-240 c223 -23 398 -81 584 -195 78 -47 117 -44 179 13 57 53 80 64 131 64 49
0 89 -18 125 -56 19 -21 25 -40 28 -89 4 -61 3 -64 -39 -116 -79 -96 -83 -112
-45 -182 13 -24 42 -79 65 -121 36 -66 96 -219 88 -222 -103 -47 -121 -74
-187 -276 -86 -265 -249 -567 -424 -784 -339 -421 -784 -715 -1331 -881 -66
-20 -139 -47 -162 -61 -42 -24 -93 -94 -93 -127 0 -23 -10 -22 -93 13 -105 44
-100 37 -82 105 19 76 19 128 -2 172 -37 78 -135 96 -195 35 -25 -25 -31 -41
-38 -101 -11 -104 -52 -153 -136 -166 -50 -8 -120 26 -152 75 -20 29 -23 45
-20 90 3 46 11 65 41 104 50 66 50 101 -5 191 -140 234 -195 465 -185 780 21
620 339 1174 850 1478 325 195 744 292 1098 257z"/>
</g>
</svg>
