<?xml version="1.0" standalone="no"?>
<!DOCTYPE svg PUBLIC "-//W3C//DTD SVG 20010904//EN"
 "http://www.w3.org/TR/2001/REC-SVG-20010904/DTD/svg10.dtd">
<svg version="1.0" xmlns="http://www.w3.org/2000/svg"
 width="512.000000pt" height="512.000000pt" viewBox="0 0 512.000000 512.000000"
 preserveAspectRatio="xMidYMid meet">

<g transform="translate(0.000000,512.000000) scale(0.100000,-0.100000)"
fill="#000000" stroke="none">
<path d="M2832 3860 c-100 -26 -166 -64 -238 -136 -117 -117 -154 -232 -154
-491 l0 -161 -49 -11 c-27 -6 -77 -20 -111 -32 l-61 -21 -77 20 c-136 36 -223
46 -387 46 -107 -1 -192 -7 -255 -18 -207 -38 -425 -128 -605 -249 -118 -80
-302 -265 -383 -384 -359 -530 -359 -1196 0 -1726 81 -119 265 -304 383 -384
176 -119 389 -207 600 -249 84 -17 191 -19 1487 -21 1547 -4 1437 -8 1478 60
24 39 25 68 5 108 -29 54 -67 69 -184 69 l-104 0 74 51 c101 71 282 255 356
364 361 532 361 1197 0 1730 -131 193 -375 401 -590 503 -328 156 -717 192
-1056 97 -56 -16 -60 -16 -142 8 -46 14 -97 28 -112 32 l-29 6 4 187 c3 210 9
232 85 303 51 49 94 70 162 76 70 7 107 25 131 66 25 41 25 73 0 114 -39 65
-100 76 -228 43z m-953 -1026 c57 -6 61 -8 54 -28 -25 -67 6 -142 67 -162 49
-16 86 -4 170 57 141 101 279 145 425 136 66 -5 215 -40 215 -51 0 -2 -7 -17
-16 -35 -23 -47 -12 -85 54 -176 182 -254 289 -623 261 -898 -37 -369 -127
-550 -331 -668 -150 -86 -212 -180 -212 -324 -1 -153 77 -264 228 -326 l40
-16 -55 -21 c-93 -34 -164 -42 -397 -42 -211 0 -227 1 -259 21 -33 21 -34 21
-121 3 -120 -25 -364 -25 -482 -1 -519 110 -910 500 -1015 1011 -23 114 -35
360 -20 411 7 22 20 76 30 120 22 101 94 290 142 369 51 86 151 212 214 272
267 251 653 385 1008 348z"/>
<path d="M1730 2539 c-95 -38 -115 -154 -36 -214 52 -39 116 -32 167 19 54 54
40 137 -30 183 -37 25 -61 28 -101 12z"/>
<path d="M1558 2144 c-38 -20 -54 -55 -77 -170 -101 -504 -12 -1034 238 -1416
52 -80 88 -108 138 -108 67 0 131 76 117 138 -4 15 -28 61 -54 102 -135 213
-208 443 -232 728 -14 164 -1 366 32 516 24 108 25 128 5 166 -28 55 -109 76
-167 44z"/>
<path d="M4896 261 c-83 -55 -68 -173 26 -209 48 -18 82 -9 119 30 35 39 44
77 29 123 -23 71 -109 98 -174 56z"/>
</g>
</svg>
