<?xml version="1.0" standalone="no"?>
<!DOCTYPE svg PUBLIC "-//W3C//DTD SVG 20010904//EN"
 "http://www.w3.org/TR/2001/REC-SVG-20010904/DTD/svg10.dtd">
<svg version="1.0" xmlns="http://www.w3.org/2000/svg"
 width="512.000000pt" height="512.000000pt" viewBox="0 0 512.000000 512.000000"
 preserveAspectRatio="xMidYMid meet">

<g transform="translate(0.000000,512.000000) scale(0.100000,-0.100000)"
fill="#000000" stroke="none">
<path d="M495 4536 c-63 -28 -177 -192 -224 -322 -75 -205 -63 -450 30 -637
41 -82 108 -174 158 -220 34 -31 48 -37 85 -37 28 0 52 7 69 20 l26 21 48 -30
c84 -52 174 -80 304 -96 l47 -6 -33 -55 c-102 -170 -111 -381 -22 -548 45 -85
138 -175 223 -217 38 -18 71 -34 73 -35 1 -2 -5 -33 -15 -71 -24 -93 -25 -320
-1 -417 41 -163 114 -298 226 -418 126 -134 275 -223 452 -269 79 -21 112 -23
604 -28 499 -6 522 -7 577 -28 138 -52 251 -171 297 -314 6 -20 16 -72 20
-115 8 -70 13 -82 40 -106 56 -50 107 -49 164 1 32 29 32 30 31 123 -3 173
-70 323 -209 465 l-80 81 53 32 c77 46 164 121 223 193 29 34 56 64 61 66 21
8 106 -35 150 -77 69 -64 88 -122 88 -266 0 -101 2 -117 23 -147 47 -70 147
-70 195 1 23 34 24 40 19 180 -5 160 -20 221 -78 311 -58 91 -155 173 -249
209 -19 7 -36 14 -38 15 -1 1 7 37 18 81 38 144 35 333 -6 480 -5 17 5 25 60
53 36 17 91 55 122 84 107 97 158 205 173 366 17 182 59 242 231 331 186 96
314 227 394 402 133 288 87 623 -122 874 -45 56 -78 74 -133 74 -33 0 -47 -6
-75 -34 -29 -29 -34 -41 -34 -79 0 -29 7 -53 20 -70 l21 -26 -207 -248 c-114
-136 -210 -248 -214 -248 -4 0 -99 112 -212 249 l-206 249 19 31 c29 47 25 99
-11 140 -80 91 -177 40 -295 -154 -137 -226 -151 -540 -34 -773 41 -82 108
-174 158 -220 34 -31 48 -37 85 -37 28 0 52 7 69 20 l25 20 59 -34 c75 -44
165 -74 260 -86 42 -6 77 -11 79 -13 1 -1 -12 -26 -30 -54 -47 -74 -76 -171
-86 -285 -5 -66 -15 -113 -30 -143 -27 -56 -97 -119 -155 -138 l-43 -15 -62
79 c-104 131 -251 238 -405 292 -142 50 -175 52 -710 52 -552 0 -569 -1 -735
-66 -147 -56 -341 -209 -406 -318 -22 -37 -25 -37 -89 -7 -142 66 -202 232
-136 380 39 88 72 119 201 186 186 96 314 227 394 402 134 290 86 628 -125
878 -75 90 -149 102 -208 34 -38 -43 -43 -106 -11 -147 l21 -26 -207 -248
c-114 -136 -210 -248 -214 -248 -4 0 -99 112 -212 249 l-206 249 19 31 c30 49
25 100 -13 141 -38 41 -87 53 -133 31z m2627 -1785 c151 -39 285 -126 373
-243 53 -70 102 -164 92 -174 -4 -4 -38 -7 -76 -8 -63 -1 -73 -4 -126 -41 -63
-43 -89 -78 -106 -140 -15 -55 -53 -128 -88 -167 -15 -18 -36 -48 -45 -65 -19
-37 -135 -128 -215 -168 -95 -47 -159 -54 -502 -56 -318 -1 -437 -12 -464 -41
-27 -28 -55 -94 -55 -130 0 -20 -4 -39 -9 -43 -5 -3 -36 10 -68 29 -166 98
-281 247 -328 426 -23 84 -23 234 -1 320 9 36 35 103 57 150 57 115 179 239
292 295 145 72 162 73 708 74 449 1 492 0 561 -18z"/>
<path d="M2913 3416 c-35 -16 -73 -68 -73 -101 0 -11 5 -37 11 -58 29 -106
190 -100 228 9 13 37 12 44 -5 79 -34 69 -100 98 -161 71z"/>
<path d="M2104 3401 c-44 -27 -64 -59 -64 -102 0 -51 36 -101 87 -119 38 -13
46 -12 78 3 69 33 97 126 54 181 -43 55 -102 69 -155 37z"/>
<path d="M1043 1619 c-38 -24 -85 -114 -109 -207 -11 -46 -15 -98 -12 -193 3
-128 3 -129 33 -159 39 -38 90 -48 136 -26 56 26 63 47 69 196 5 126 7 140 38
204 37 78 38 94 16 142 -30 63 -109 83 -171 43z"/>
<path d="M1633 1153 c-79 -15 -175 -220 -190 -404 -10 -113 29 -169 116 -169
77 0 121 48 121 132 0 66 25 148 72 238 42 80 42 81 28 122 -22 61 -81 94
-147 81z"/>
</g>
</svg>
