<svg width="26" height="26" viewBox="0 0 26 26" fill="none" xmlns="http://www.w3.org/2000/svg">
<path d="M21.8027 8.80049L21.8005 8.80271C21.7704 8.83288 21.7465 8.85 21.6667 8.85H15.1667C15.0869 8.85 15.0629 8.83288 15.0328 8.80271L15.0306 8.8005C15.0005 8.77043 14.9833 8.74645 14.9833 8.66667V4.33333C14.9833 4.25352 15.0005 4.22852 15.0317 4.19731C15.0616 4.16747 15.0859 4.15 15.1667 4.15H21.6667C21.7474 4.15 21.7718 4.16747 21.8016 4.19731C21.8328 4.22852 21.85 4.25352 21.85 4.33333V8.66667C21.85 8.74645 21.8329 8.77043 21.8027 8.80049ZM4.19951 13.136L4.19729 13.1338C4.16712 13.1038 4.15 13.0798 4.15 13V4.33333C4.15 4.25352 4.16719 4.22852 4.1984 4.19731C4.22824 4.16747 4.25256 4.15 4.33333 4.15H10.8333C10.9132 4.15 10.9389 4.16712 10.9694 4.19732C10.9995 4.22781 11.0167 4.25351 11.0167 4.33333V13C11.0167 13.0808 10.9992 13.1051 10.9694 13.1349C10.9381 13.1661 10.9132 13.1833 10.8333 13.1833H4.33333C4.25355 13.1833 4.22957 13.1662 4.19951 13.136ZM21.8027 21.8005L21.8005 21.8027C21.7704 21.8329 21.7465 21.85 21.6667 21.85H15.1667C15.0869 21.85 15.0629 21.8329 15.0328 21.8027L15.0306 21.8005C15.0005 21.7704 14.9833 21.7465 14.9833 21.6667V13C14.9833 12.9202 15.0005 12.8952 15.0317 12.864C15.0616 12.8341 15.0859 12.8167 15.1667 12.8167H21.6667C21.7474 12.8167 21.7718 12.8341 21.8016 12.864C21.8328 12.8952 21.85 12.9202 21.85 13V21.6667C21.85 21.7465 21.8329 21.7704 21.8027 21.8005ZM4.19951 21.8027L4.19729 21.8005C4.16712 21.7704 4.15 21.7465 4.15 21.6667V17.3333C4.15 17.2535 4.16719 17.2285 4.1984 17.1973C4.22824 17.1675 4.25256 17.15 4.33333 17.15H10.8333C10.9132 17.15 10.9389 17.1671 10.9694 17.1973C10.9995 17.2278 11.0167 17.2535 11.0167 17.3333V21.6667C11.0167 21.7474 10.9992 21.7718 10.9694 21.8016C10.9381 21.8328 10.9132 21.85 10.8333 21.85H4.33333C4.25355 21.85 4.22957 21.8329 4.19951 21.8027Z" stroke="#6D767E" stroke-width="1.8"/>
</svg>
