<?xml version="1.0" standalone="no"?>
<!DOCTYPE svg PUBLIC "-//W3C//DTD SVG 20010904//EN"
 "http://www.w3.org/TR/2001/REC-SVG-20010904/DTD/svg10.dtd">
<svg version="1.0" xmlns="http://www.w3.org/2000/svg"
 width="512.000000pt" height="512.000000pt" viewBox="0 0 512.000000 512.000000"
 preserveAspectRatio="xMidYMid meet">

<g transform="translate(0.000000,512.000000) scale(0.100000,-0.100000)"
fill="#000000" stroke="none">
<path d="M2360 3903 c-125 -48 -875 -369 -960 -412 -224 -112 -400 -240 -580
-421 -121 -121 -239 -269 -312 -392 -59 -99 -57 -127 10 -236 229 -368 567
-661 977 -844 528 -237 881 -388 906 -388 56 0 93 30 113 92 5 16 -2 50 -19
90 -5 14 3 17 62 23 617 59 1184 367 1556 847 48 62 63 76 73 66 6 -7 69 -102
139 -211 69 -108 136 -204 148 -212 12 -8 41 -15 65 -15 37 0 50 6 78 34 28
28 34 41 34 77 0 38 -17 69 -161 292 -88 137 -163 255 -166 263 -3 8 67 125
157 265 89 138 166 264 170 281 22 74 -47 155 -123 145 -21 -3 -47 -13 -58
-23 -11 -10 -78 -109 -151 -221 -72 -112 -134 -203 -137 -203 -4 0 -44 47 -89
103 -338 427 -848 720 -1392 801 -58 9 -123 17 -145 18 -40 3 -40 3 -37 41 8
102 -71 173 -158 140z m208 -424 c369 -40 720 -181 1017 -408 137 -105 315
-294 416 -443 l41 -59 -28 -42 c-214 -327 -573 -612 -947 -751 -221 -82 -392
-116 -627 -123 -210 -7 -379 13 -558 63 l-54 15 44 47 c176 189 283 428 308
691 10 111 3 156 -34 190 -51 48 -149 33 -179 -27 -8 -15 -17 -67 -21 -117
-11 -156 -51 -286 -130 -419 -42 -70 -164 -209 -218 -247 l-30 -21 -82 40
c-116 58 -304 186 -413 282 -102 89 -240 246 -310 351 l-45 67 43 64 c96 142
271 331 404 434 403 314 919 466 1403 413z"/>
<path d="M1341 2677 c-48 -17 -76 -58 -76 -113 0 -36 6 -49 33 -76 28 -28 39
-33 82 -33 40 0 54 5 79 29 91 88 2 234 -118 193z"/>
</g>
</svg>
