<?xml version="1.0" standalone="no"?>
<!DOCTYPE svg PUBLIC "-//W3C//DTD SVG 20010904//EN"
 "http://www.w3.org/TR/2001/REC-SVG-20010904/DTD/svg10.dtd">
<svg version="1.0" xmlns="http://www.w3.org/2000/svg"
 width="512.000000pt" height="512.000000pt" viewBox="0 0 512.000000 512.000000"
 preserveAspectRatio="xMidYMid meet">

<g transform="translate(50,430) scale(0.08,-0.08)"
fill="#000000" stroke="none">
<path d="M2210 3889 c-944 -66 -1687 -363 -1885 -754 -33 -64 -40 -87 -39
-134 1 -62 18 -103 61 -142 66 -62 35 -59 700 -59 585 0 609 1 640 20 63 38
66 142 6 190 -25 20 -39 20 -589 20 -310 0 -564 3 -564 7 0 23 93 121 167 177
272 204 760 356 1363 423 220 25 831 25 1048 0 467 -53 820 -145 1107 -287
158 -78 267 -157 337 -244 70 -88 78 -120 78 -322 l0 -172 -60 -52 -60 -52
-31 26 c-49 41 -92 36 -199 -26 -99 -56 -151 -106 -183 -177 -22 -48 -24 -77
-36 -809 -1 -53 -5 -67 -26 -87 -26 -27 -80 -34 -116 -15 -22 13 -49 61 -49
90 0 41 -30 81 -76 101 l-44 20 0 72 c0 40 4 77 8 82 4 6 24 18 44 27 52 24
72 66 65 140 -7 77 -46 155 -105 210 -165 154 -439 97 -535 -110 -21 -46 -22
-61 -27 -535 l-5 -489 -28 -24 c-40 -34 -90 -32 -128 5 l-29 29 0 194 c0 226
-7 250 -77 283 l-43 19 0 91 1 90 42 20 c58 28 80 72 72 145 -12 114 -84 218
-183 267 -53 26 -69 28 -207 33 -94 3 -158 10 -172 18 -28 16 -43 43 -43 77 0
14 70 164 157 333 155 305 156 307 144 344 -26 79 -117 114 -180 68 -20 -13
-76 -114 -191 -342 l-163 -324 0 -74 c0 -84 23 -155 67 -213 l28 -36 -37 -32
c-50 -45 -67 -82 -74 -168 -6 -72 -7 -75 -36 -85 -33 -11 -1486 -22 -1542 -11
l-33 6 0 387 c0 369 -1 389 -20 420 -49 80 -171 67 -205 -23 -14 -35 -16 -116
-13 -615 3 -506 5 -580 20 -618 24 -63 67 -121 118 -158 90 -66 58 -64 862
-64 l728 0 0 -278 c0 -349 8 -387 99 -485 77 -83 168 -106 416 -107 597 -1
1189 93 1590 252 343 136 578 313 674 509 52 107 71 208 50 265 -11 30 -25 44
-62 63 l-47 23 0 100 0 99 33 14 c66 28 102 90 86 149 -10 38 -56 82 -95 92
-24 6 -24 8 -24 114 l0 108 44 22 c79 38 78 26 74 548 l-3 457 -26 65 c-167
431 -886 741 -1879 810 -166 11 -591 11 -760 -1z"/>
<path d="M1979 3001 c-32 -32 -39 -46 -39 -77 0 -43 27 -91 62 -110 100 -56
217 62 163 166 -21 42 -53 60 -103 60 -38 0 -50 -6 -83 -39z"/>
</g>
</svg>
