<svg width="202" height="305" viewBox="0 0 202 305" fill="none" xmlns="http://www.w3.org/2000/svg">
<path d="M125.159 16.2143C124.076 16.2984 123.821 16.632 122.78 19.5043C121.643 22.6068 121.473 23.3559 121.829 24.0576C121.988 24.4109 122.017 24.6841 121.873 24.898C121.767 25.0545 121.225 26.2726 120.671 27.5746C119.882 29.4098 119.493 30.5401 118.97 32.5721C118.152 35.7144 117.773 36.409 116.36 37.5033C115.536 38.1149 115.13 38.2737 113.583 38.5844C111.227 39.0554 109.873 39.5202 108.221 40.3916C106.633 41.2322 105.521 42.2716 104.815 43.5563C104.447 44.2196 102.417 50.0173 98.1065 62.6498L91.9161 80.7979L92.0272 81.8017C92.1761 83.2574 92.6238 84.2015 93.617 85.1928L94.4906 86.0727L105.62 89.9541C115.573 93.4305 116.871 93.8419 117.81 93.9191C119.683 94.0368 121.544 93.2199 122.55 91.8277C122.944 91.296 124.093 88.0572 129.353 72.7667C135.412 55.1528 135.683 54.3154 135.713 53.3077C135.753 51.8643 135.439 50.6852 134.537 48.9178C133.759 47.4036 132.915 46.1827 131.601 44.6949C130.578 43.5353 129.88 41.8381 129.944 40.6312C129.984 39.7495 130.098 39.3674 131.118 36.9621C132.198 34.4366 133.444 30.4059 133.551 29.0734C133.585 28.8218 133.771 28.5873 134.167 28.3548C134.944 27.8845 135.142 27.4611 136.17 24.2684C137.176 21.191 137.185 20.8078 136.342 20.0437C135.68 19.4651 126.01 16.1384 125.159 16.2143ZM126.127 38.9671C126.121 39.0878 126.064 39.5597 126.023 40.0371C125.791 42.2924 126.723 45.2992 128.167 46.9195C129.435 48.3387 130.771 50.2205 131.177 51.1327C131.901 52.8039 131.882 53.166 130.672 56.6825L129.603 59.7908L117.829 55.7405L106.055 51.6901L107.146 48.519C108.134 45.6462 108.29 45.2959 108.793 44.802C109.605 43.975 111.924 42.9996 114.223 42.5439C116.532 42.0567 117.892 41.4713 119.142 40.3912C119.989 39.6643 121.274 38.0701 121.474 37.4892C121.571 37.2067 121.718 37.2396 123.853 37.974C125.549 38.5573 126.129 38.8096 126.127 38.9671ZM119.31 60.1123C120.619 61.0016 122.684 63.5729 122.511 64.0752C122.473 64.1851 121.792 64.5829 120.991 64.9742L119.556 65.6745L118.986 64.829C117.982 63.3074 117.435 62.9084 115.588 62.2554C114.128 61.7532 113.813 61.6977 112.936 61.7995C112.373 61.8519 111.568 62.0489 111.141 62.2181L110.382 62.5363L109.599 60.9853L108.837 59.4239L109.433 59.1199C112.098 57.7016 116.425 58.1368 119.31 60.1123ZM117.22 65.1166C118.602 66.6104 118.923 68.6872 118.106 70.6535C117.596 71.8823 116.922 72.6162 115.729 73.2768C113.238 74.6494 109.816 73.4721 108.696 70.8574C108.162 69.6027 108.082 68.6097 108.436 67.3268C108.822 65.9497 109.477 65.0162 110.597 64.2604C112.055 63.2873 113.5 63.1699 115.294 63.8749C116.314 64.2784 116.664 64.4865 117.22 65.1166ZM116.401 78.7748L115.807 80.5017L109.998 78.5035L104.19 76.5053L104.784 74.7785L105.378 73.0516L111.187 75.0498L116.995 77.048L116.401 78.7748ZM119.602 88.7597C118.877 90.5115 119.998 90.7218 107.377 86.3798C101.396 84.3222 96.3882 82.547 96.2631 82.4513C95.9246 82.1593 95.8753 81.2821 96.1723 80.4186L96.4423 79.6337L108.232 83.6894L120.022 87.7452L119.602 88.7597Z" fill="#8BBA66"/>
<g clip-path="url(#clip0_636_28)">
<path d="M39.9472 84.4838C36.3555 86.4466 34.08 90.1667 33.9627 94.218C33.9457 95.331 34.0385 95.9961 34.4429 97.5385L34.9602 99.463L34.0221 99.8617C33.4997 100.085 32.6647 100.54 32.164 100.896C29.5221 102.734 27.7471 106.566 28.0499 109.696C28.1421 110.534 28.1031 110.754 27.8643 110.824C27.0842 111.055 26.467 112.363 26.726 113.239C27.0133 114.21 28.2145 114.876 29.1538 114.598L29.6154 114.461L36.1554 126.152C39.7594 132.6 42.7761 137.94 42.8362 138.026C42.9169 138.123 42.8655 138.242 42.7223 138.285C42.2447 138.426 41.6696 139.115 41.5561 139.668C41.4669 140.127 41.7506 141.204 43.3989 146.775C45.5887 154.178 45.7448 154.53 47.4189 156.268C49.4637 158.381 52.6331 159.556 55.4695 159.254C57.046 159.081 70.8661 154.941 72.1232 154.275C74.6872 152.876 76.5082 150.312 77.0796 147.269C77.4726 145.144 77.362 144.536 75.2051 137.245C73.3967 131.132 73.2489 130.691 72.8258 130.314C72.5866 130.091 72.1309 129.896 71.8226 129.849C71.519 129.818 71.2491 129.725 71.2255 129.645C71.202 129.565 71.1527 125.009 71.1085 119.534C71.0802 114.054 71.0439 109.425 71.0334 109.273C71.0293 109.083 71.2576 108.86 71.589 108.693C72.3585 108.309 72.5885 108.034 72.7692 107.357C73.1064 106.097 72.222 104.922 70.8897 104.866C70.2394 104.833 70.1522 104.772 69.7558 104.076C69.1761 103.053 67.7412 101.538 66.704 100.841C64.3105 99.2465 61.2723 98.691 58.8525 99.4068L57.9929 99.6611L57.6975 98.3115C56.0819 90.8602 55.6385 89.5371 54.0294 87.4335L53.1639 86.3218L53.4995 85.8763C54.2363 84.9139 54.0936 83.5538 53.1689 82.9444C52.111 82.2359 51.0002 82.4606 50.139 83.5291L49.706 84.0553L48.599 83.7076C45.7879 82.8079 42.4634 83.0989 39.9472 84.4838ZM43.6614 88.3192C45.0164 89.0956 46.4165 90.5512 47.0951 91.9086C47.6223 92.9299 57.3761 128.184 57.4641 129.301C57.539 130.491 57.1711 131.881 56.4761 133.16L55.7763 134.423L54.0729 134.927L52.3695 135.431L51.982 134.472C51.1976 132.523 38.7735 97.7809 38.3921 96.4914C37.9871 95.1223 37.8368 93.6779 38.0756 93.6073C38.1552 93.5837 38.1888 93.5218 38.1493 93.4469C38.0244 93.2588 38.1114 92.5579 38.2706 92.5108C38.3502 92.4873 38.3809 92.357 38.3432 92.2296C38.3056 92.1023 38.3522 91.9673 38.4318 91.9437C38.5273 91.9155 38.5674 91.817 38.5345 91.7056C38.4591 91.4509 39.2503 89.9703 39.5051 89.895C39.6165 89.862 39.6885 89.7541 39.6649 89.6745C39.6367 89.579 39.7293 89.4824 39.8566 89.4447C39.984 89.407 40.0719 89.2945 40.0436 89.199C40.0201 89.1194 40.0902 89.064 40.184 89.0882C40.2936 89.1077 40.3479 89.057 40.3149 88.9456C40.2819 88.8341 40.3203 88.7882 40.3981 88.8171C40.4647 88.8666 40.5985 88.7924 40.6817 88.6639C40.8752 88.3816 41.5416 87.9421 42.0622 87.7708C42.36 87.6654 42.7809 87.8006 43.6614 88.3192ZM35.1734 108.143C35.952 109.955 36.9173 111.99 37.3091 112.67C37.7008 113.351 38.1596 114.375 38.3339 114.964C38.5929 115.84 40.8026 120.968 47.4313 136.061C47.7529 136.796 47.7529 136.796 47.2912 136.933L46.8295 137.07L42.3537 129.079C39.8978 124.699 37.7989 120.939 37.7012 120.726C37.5875 120.517 36.8293 119.183 36.027 117.759C35.2087 116.339 34.4665 115 34.3528 114.791C34.255 114.578 33.7355 113.641 33.2159 112.704C32.5131 111.44 32.2263 110.763 32.1128 110.087C31.9494 109.183 32.1488 107.341 32.4999 106.596C32.782 106.028 33.6026 104.764 33.6692 104.814C33.7104 104.836 34.3789 106.335 35.1734 108.143ZM64.1015 103.983C64.5029 104.228 65.1971 104.819 65.6167 105.3C66.7298 106.547 67.0576 107.713 67.0317 110.318C67.01 111.415 67.0414 116.496 67.1028 121.619C67.1859 129.801 67.1163 131.38 66.7562 131.157C66.7149 131.135 66.0266 127.755 65.2313 123.662C64.4361 119.569 63.7514 116.084 63.7043 115.925C63.6431 115.718 63.7675 115.612 64.2769 115.461C65.6938 115.042 66.3458 113.793 65.765 112.649C65.4398 112.018 64.4673 111.423 63.9897 111.564C63.5918 111.682 63.5382 111.559 63.7341 111.051C63.9366 110.506 63.5704 109.386 63.093 109.059C62.7028 108.794 62.6905 108.694 62.3296 106.186C62.1156 104.761 61.9328 103.499 61.8999 103.387C61.8057 103.069 63.2322 103.443 64.1015 103.983ZM67.3283 141.168C68.7858 146.329 68.8905 146.8 68.8329 147.717C68.7523 148.849 68.4841 149.933 67.9967 150.977L67.6568 151.701L61.4594 153.517C55.055 155.394 54.0557 155.586 53.2558 155.165C53.0908 155.075 52.8827 155.015 52.7872 155.044C52.6917 155.072 52.5885 155.016 52.565 154.936C52.5367 154.841 52.4383 154.801 52.3269 154.834C52.0722 154.909 51.2105 154.454 51.1351 154.199C51.1021 154.088 51.0102 154.011 50.9147 154.039C50.8351 154.063 50.7319 154.007 50.7037 153.911C50.6754 153.816 50.5122 153.674 50.3472 153.584C49.5839 153.169 49.1823 152.163 47.5445 146.744L45.9698 141.479L55.8559 138.554L65.7579 135.625L67.3283 141.168Z" fill="#8BBA66"/>
</g>
<g clip-path="url(#clip1_636_28)">
<path d="M180.568 164.051C178.962 162.838 176.66 161.689 174.653 161.098C171.028 160.049 166.708 160.233 162.941 161.611L161.64 162.097L161.435 160.861C160.963 157.791 159.774 154.669 157.998 151.737C156.182 148.766 152.651 145.337 149.502 143.509C147.121 142.11 144.346 141.072 141.683 140.564C139.736 140.205 137.018 140.007 136.304 140.188C135.841 140.308 135.429 140.708 120.323 156.092C103.262 173.466 104.325 172.306 104.576 173.338C104.706 173.849 104.814 173.954 113.915 182.853L123.123 191.838L123.587 191.853C124.139 191.857 124.86 191.454 125.117 190.998C125.336 190.638 125.36 190.048 125.192 189.673C125.123 189.547 121.786 186.213 117.767 182.267C110.187 174.824 110.295 174.949 111.264 175.172C111.603 175.256 114.153 176.093 114.59 176.273C114.862 176.386 116.551 177.202 116.785 177.355C116.862 177.393 117.047 177.498 117.212 177.602C117.504 177.774 117.611 177.84 118.282 178.269C119.069 178.755 119.712 179.31 121.293 180.862C122.229 181.782 123.166 182.759 123.362 183.028C123.988 183.873 124.234 184.248 124.646 184.921C124.734 185.065 124.852 185.238 124.881 185.305C125.038 185.536 125.885 187.211 126.003 187.48C126.181 187.904 127.065 190.439 127.164 190.786C127.325 191.384 127.557 192.532 127.559 192.745C127.58 192.861 127.621 193.17 127.662 193.421C127.713 193.681 127.767 194.309 127.801 194.821C127.892 196.367 127.972 196.695 128.372 197.088C128.831 197.538 129.828 197.635 130.347 197.302L130.702 197.076L132.419 198.762L134.146 200.458L133.928 201.011C133.796 201.321 133.761 201.766 133.841 202.075C133.972 202.586 134.089 202.701 142.995 211.447C150.019 218.344 152.096 220.326 152.387 220.42C152.581 220.476 152.997 220.482 153.286 220.422L153.836 220.31L169.421 204.439L185.007 188.567L185.108 188.015C185.366 186.64 184.188 185.713 182.907 186.256L182.358 186.484L180.729 184.884L179.09 183.275L183.161 179.129C187.548 174.661 187.596 174.593 187.415 173.782C187.273 173.146 186.188 170.739 185.589 169.729C184.323 167.604 182.418 165.446 180.568 164.051ZM181.928 170.043C182.242 170.542 182.624 171.071 182.682 171.07C182.711 171.08 182.78 171.224 182.83 171.388C182.889 171.561 183.047 171.869 183.203 172.081C183.35 172.282 183.478 172.542 183.489 172.648C183.499 172.735 183.627 173.014 183.765 173.245L184.02 173.668L169.901 188.105C162.133 196.036 155.733 202.494 155.694 202.456C155.655 202.418 155.616 202.302 155.615 202.205C155.614 202.089 155.495 201.839 155.339 201.628C155.182 201.417 155.045 201.186 155.025 201.109C155.014 201.041 154.926 200.878 154.847 200.743C154.759 200.618 154.612 200.397 154.524 200.253C153.661 198.907 153.309 198.504 151.699 196.924C150.061 195.315 149.505 194.846 148.368 194.208C147.406 193.666 147.056 193.476 146.668 193.325C146.426 193.24 146.183 193.117 146.125 193.059C146.066 193.002 145.901 192.916 145.755 192.869C145.629 192.822 145.154 192.662 144.718 192.521C143.602 192.135 142.692 191.911 141.985 191.811C141.646 191.766 141.269 191.721 141.133 191.703C140.369 191.603 137.227 191.642 136.638 191.773L135.915 191.924L148.798 178.804C161.309 166.083 161.692 165.693 162.251 165.494C162.569 165.385 162.867 165.237 162.925 165.198C163.117 165.003 166.018 164.077 166.501 164.054C166.627 164.043 166.888 163.992 167.051 163.942C167.543 163.793 168.007 163.75 169.873 163.743C170.849 163.743 171.778 163.793 171.914 163.869C172.05 163.926 172.204 163.944 172.252 163.895C172.3 163.846 172.387 163.855 172.446 163.912C172.504 163.97 172.941 164.092 173.425 164.184C173.909 164.276 174.636 164.511 175.044 164.701C175.462 164.9 175.888 165.07 175.985 165.069C176.082 165.088 176.315 165.202 176.5 165.326C176.694 165.459 177.044 165.669 177.287 165.792C177.53 165.916 177.929 166.173 178.172 166.355C178.425 166.526 178.658 166.679 178.697 166.679C178.813 166.678 181.732 169.716 181.928 170.043ZM153.721 151.35C153.985 151.667 154.288 152.061 154.396 152.224C154.504 152.387 154.68 152.637 154.788 152.8C154.974 153.079 155.17 153.367 155.464 153.829C155.533 153.935 155.661 154.194 155.76 154.406C155.848 154.608 155.946 154.743 155.975 154.714C156.013 154.675 156.053 154.771 156.064 154.916C156.075 155.061 156.124 155.147 156.153 155.118C156.191 155.079 156.25 155.136 156.27 155.252C156.29 155.349 156.33 155.464 156.35 155.503C156.399 155.57 156.586 155.965 156.754 156.36C157.119 157.197 157.894 159.53 157.897 159.781C157.897 159.839 157.957 160.052 158.027 160.254C158.087 160.466 158.177 160.842 158.199 161.093C158.22 161.345 158.263 161.731 158.303 161.943C158.334 162.165 158.397 162.726 158.431 163.199L158.487 164.059L155.019 167.571C153.094 169.532 151.608 170.966 151.665 170.811C151.863 170.336 151.741 169.621 151.408 169.18C151.027 168.709 150.203 168.475 149.596 168.684C149.307 168.783 147.112 170.959 139.631 178.578C134.344 183.963 130.004 188.343 129.975 188.314C129.936 188.276 129.847 188.054 129.213 186.417C129.065 186.041 128.907 185.675 128.858 185.608C128.808 185.521 128.681 185.281 128.592 185.059C128.493 184.847 128.345 184.568 128.257 184.424C128.169 184.299 128.081 184.174 128.09 184.145C128.08 184.116 128.051 184.068 128.021 184.02C127.992 183.953 127.835 183.703 127.687 183.424C127.53 183.154 127.304 182.779 127.167 182.587C127.04 182.405 126.824 182.097 126.687 181.905C125.159 179.676 122.349 176.917 120.151 175.487C119.957 175.373 119.616 175.134 119.402 174.982C119.188 174.829 118.955 174.696 118.887 174.687C118.819 174.658 118.654 174.573 118.508 174.487C118.042 174.201 117.876 174.097 117.857 174.116C117.848 174.126 117.721 174.04 117.566 173.945C117.41 173.83 117.187 173.745 117.051 173.727C116.926 173.718 116.848 173.681 116.886 173.641C116.924 173.602 116.837 173.555 116.692 173.547C116.547 173.538 116.459 173.491 116.488 173.461C116.526 173.422 116.4 173.356 116.216 173.309C116.022 173.253 115.847 173.177 115.809 173.158C115.682 173.034 113.316 172.262 112.56 172.095C112.221 172.011 111.833 171.899 111.717 171.842C111.581 171.785 111.445 171.767 111.397 171.816C111.35 171.865 111.243 171.837 111.165 171.76C111.087 171.683 110.98 171.655 110.923 171.714C110.875 171.763 110.778 171.764 110.72 171.706C110.661 171.649 110.487 171.611 110.332 171.613C110.168 171.605 109.993 171.568 109.945 171.52C109.896 171.472 115.221 165.971 123.641 157.396L137.425 143.358L138.277 143.428C138.751 143.453 139.321 143.496 139.563 143.523C139.815 143.54 140.086 143.576 140.183 143.575C140.725 143.628 141.897 143.878 141.984 143.965C142.033 144.013 142.198 144.059 142.333 144.058C142.469 144.057 143.099 144.235 143.729 144.451C144.359 144.668 144.99 144.885 145.126 144.922C145.271 144.969 145.426 145.045 145.475 145.093C145.524 145.141 145.738 145.255 145.951 145.35C146.155 145.435 146.34 145.539 146.378 145.558C146.408 145.587 146.524 145.625 146.65 145.633C146.766 145.632 146.844 145.67 146.805 145.709C146.777 145.739 146.913 145.834 147.126 145.929C147.33 146.014 147.592 146.137 147.709 146.213C148.885 146.928 149.459 147.319 150.355 148.046C150.706 148.332 151.017 148.562 151.027 148.571C151.105 148.57 153.261 150.803 153.721 151.35Z" fill="#8BBA66"/>
</g>
<path d="M92.38 228.075C90.5099 227.706 88.8186 227.777 86.9088 228.316C85.7785 228.626 85.2522 229.023 84.9766 229.72C84.7385 230.365 84.8099 230.78 85.3806 231.929C85.957 233.064 86.0191 234.013 85.577 235.132C85.0776 236.396 83.8656 237.295 82.4386 237.42C82.1051 237.456 81.0018 237.272 79.9852 237.039C76.7961 236.266 75.1339 236.349 72.7619 237.377C69.4864 238.821 67.4566 241.833 67.301 245.501L67.2371 246.854L66.0699 246.661C64.1711 246.365 62.2919 246.614 60.5224 247.393C58.7675 248.178 57.6512 249.047 56.607 250.5C53.5725 254.694 54.3331 260.253 58.4245 263.717L59.3797 264.531L57.2289 273.207C55.2577 281.131 55.0899 281.938 55.2688 282.379C55.3686 282.636 55.6021 282.981 55.7712 283.148C56.0013 283.374 61.7824 285.708 75.7737 291.202L95.4673 298.932L96.0724 298.633C97.1465 298.083 97.4336 297.357 97.0255 296.221L96.7877 295.589L93.3754 294.191C90.4281 292.976 89.9746 292.763 90.0492 292.574C90.1525 292.313 97.0603 279.888 97.314 279.501C97.4265 279.344 97.7249 279.227 98.0557 279.24C99.6314 279.291 102.746 278.254 104.369 277.164C108.573 274.306 110.702 269.469 109.944 264.499C109.556 261.993 108.111 259.188 106.293 257.411C105.926 257.065 105.611 256.756 105.602 256.735C105.588 256.73 105.905 256.351 106.301 255.903C108.395 253.538 108.929 250.187 107.695 247.314C106.71 245.043 104.829 243.426 102.389 242.714C101.668 242.497 101.02 242.308 100.942 242.294C100.855 242.26 100.891 241.787 100.996 241.223C101.801 236.972 100.12 232.595 96.6914 230.047C95.7308 229.332 93.4807 228.309 92.38 228.075ZM94.3097 232.887C96.5941 234.461 98.0629 238.015 97.4411 240.525L97.2642 241.227L96.2913 241.011C95.7482 240.897 94.9321 240.709 94.4877 240.601C93.4972 240.344 92.7031 240.568 92.1606 241.261C91.6295 241.925 91.7061 242.879 92.3125 243.555C92.7323 244.024 92.8195 244.058 94.9398 244.56C96.1509 244.853 97.8184 245.31 98.6494 245.588C99.9336 245.995 100.198 246.133 100.446 246.483C101.24 247.62 100.667 250.686 99.4278 251.91C98.743 252.581 97.5671 253.09 96.6098 253.132C96.1486 253.152 94.1216 252.754 91.1562 252.053C88.5422 251.44 86.2277 250.963 86.0043 250.975C84.4641 251.089 83.7644 253.03 84.8541 254.099C85.2533 254.492 85.7703 254.629 92.2007 256.128L99.1247 257.738L99.9863 258.364C101.587 259.5 102.409 261.119 102.391 263.077C102.357 264.525 101.615 266.063 100.479 267.026C98.9523 268.338 96.1826 269.31 93.9746 269.328C92.0045 269.339 91.0343 269.074 86.9011 267.374C83.4597 265.964 83.0122 265.82 82.4989 265.886C81.249 266.031 80.1939 266.958 79.958 268.108L79.8588 268.657L76.8361 267.463C73.3775 266.097 73.0233 266.057 72.148 266.955L71.677 267.424L67.4746 265.814C63.3739 264.244 63.2867 264.21 63.4015 263.919C63.5565 263.527 63.3583 262.625 63.0229 262.241C62.88 262.05 62.4582 261.799 62.1006 261.641C59.1709 260.467 57.7889 256.864 59.0405 253.696C59.6376 252.184 60.4322 251.406 62.0598 250.688C63.7019 249.976 64.4446 249.967 67.3868 250.642C68.5746 250.91 69.7652 251.128 70.0176 251.127C71.4568 251.142 72.2299 249.397 71.3827 248.055C71.2046 247.783 71.0331 247.026 70.9694 246.379C70.8894 245.306 70.9204 245.1 71.4256 243.821C71.8964 242.63 72.0751 242.347 72.6906 241.767C74.2511 240.284 76.066 239.942 78.8253 240.613C79.7635 240.832 80.9888 241.047 81.5403 241.097C83.5459 241.251 85.4726 240.584 86.9872 239.217C88.8805 237.529 89.6869 235.445 89.444 232.913L89.3251 231.556L89.7661 231.545C91.33 231.541 93.1369 232.07 94.3097 232.887Z" fill="#8BBA66"/>
<path d="M103.9 298.466C103.23 298.588 102.594 299.093 102.364 299.674C102.02 300.546 102.617 301.841 103.533 302.202C103.983 302.38 105.154 301.885 105.589 301.335C106.594 300.068 105.474 298.181 103.9 298.466Z" fill="#8BBA66"/>
<defs>
<clipPath id="clip0_636_28">
<rect width="85" height="85" fill="white" transform="translate(0 91.3669) rotate(-16.4793)"/>
</clipPath>
<clipPath id="clip1_636_28">
<rect width="70" height="70" fill="white" transform="translate(152.051 123) rotate(44.4783)"/>
</clipPath>
</defs>
</svg>
