<?xml version="1.0" standalone="no"?>
<!DOCTYPE svg PUBLIC "-//W3C//DTD SVG 20010904//EN"
 "http://www.w3.org/TR/2001/REC-SVG-20010904/DTD/svg10.dtd">
<svg version="1.0" xmlns="http://www.w3.org/2000/svg"
 width="512.000000pt" height="512.000000pt" viewBox="0 0 512.000000 512.000000"
 preserveAspectRatio="xMidYMid meet">

<g transform="translate(0.000000,512.000000) scale(0.100000,-0.100000)"
fill="#000000" stroke="none">
<path d="M1797 5069 c-91 -22 -179 -95 -219 -184 -31 -70 -31 -180 0 -250 30
-65 102 -138 166 -167 l51 -23 644 -5 645 -5 13 -87 c21 -147 60 -281 143
-495 153 -390 230 -715 260 -1105 8 -96 10 -482 8 -1173 l-3 -1030 -29 -59
c-37 -76 -96 -135 -172 -172 l-59 -29 -715 0 -715 0 -59 29 c-76 37 -135 96
-172 172 l-29 59 -3 308 -3 307 348 0 c390 0 401 2 435 70 17 32 18 83 18 610
0 527 -1 578 -18 610 -34 68 -45 70 -434 70 l-348 0 0 63 c0 34 5 112 10 172
39 426 130 790 296 1178 l47 107 276 0 c302 0 309 1 348 59 28 42 29 76 3 118
-37 62 -45 63 -402 63 -380 0 -366 4 -422 -108 -140 -277 -269 -676 -330
-1017 -60 -331 -59 -320 -63 -1479 -4 -956 -3 -1077 12 -1150 43 -214 184
-375 395 -450 l85 -31 690 -3 c601 -2 700 -1 770 13 213 43 382 192 453 400
l27 80 3 985 c2 638 -1 1048 -8 1165 -26 431 -109 813 -262 1205 -102 262
-132 368 -153 527 -6 49 -6 52 22 66 47 25 104 89 132 147 34 74 35 181 2 256
-28 63 -100 136 -166 166 l-50 23 -715 2 c-398 1 -732 -3 -753 -8z m1448 -254
c33 -32 33 -78 0 -110 l-24 -25 -691 0 -691 0 -24 25 c-16 15 -25 36 -25 55 0
19 9 40 25 55 l24 25 691 0 691 0 24 -25z"/>
</g>
</svg>
