<?xml version="1.0" standalone="no"?>
<!DOCTYPE svg PUBLIC "-//W3C//DTD SVG 20010904//EN"
 "http://www.w3.org/TR/2001/REC-SVG-20010904/DTD/svg10.dtd">
<svg version="1.0" xmlns="http://www.w3.org/2000/svg"
 width="512.000000pt" height="512.000000pt" viewBox="0 0 512.000000 512.000000"
 preserveAspectRatio="xMidYMid meet">

<g transform="translate(0.000000,512.000000) scale(0.100000,-0.100000)"
fill="#000000" stroke="none">
<path d="M1865 4429 c-601 -60 -1187 -542 -1474 -1212 -128 -296 -201 -639
-201 -937 0 -709 347 -1299 888 -1511 162 -63 267 -82 452 -82 239 0 411 43
655 165 l120 59 88 -25 c119 -34 282 -65 396 -74 68 -5 96 -11 101 -22 4 -8
13 -28 21 -45 8 -17 31 -38 54 -49 37 -18 48 -19 205 -7 556 40 1036 249 1371
598 190 198 311 421 365 673 25 118 25 362 0 480 -54 252 -175 475 -365 673
-152 158 -303 268 -517 375 -230 115 -528 198 -779 217 -110 8 -123 12 -130
36 -12 37 -142 222 -203 290 -260 284 -661 437 -1047 398z m325 -254 c367 -77
662 -361 800 -770 17 -49 30 -93 30 -98 0 -5 -12 -6 -26 -3 -41 11 -128 -12
-172 -44 -43 -31 -75 -89 -147 -266 -33 -82 -39 -91 -60 -87 -41 8 -96 -26
-117 -74 -20 -45 -18 -65 9 -119 16 -30 15 -33 -16 -87 -17 -30 -65 -104 -107
-164 -348 -496 -850 -847 -1344 -938 -52 -10 -118 -22 -147 -27 -64 -11 -108
-40 -152 -100 l-35 -46 -16 21 c-34 44 -110 184 -139 257 -41 104 -79 237 -98
350 -24 134 -23 468 0 605 82 473 279 870 581 1170 136 136 255 223 411 299
266 132 506 171 745 121z m1289 -752 c230 -50 460 -147 643 -269 116 -78 260
-212 334 -309 l53 -70 -49 -11 c-28 -6 -67 -23 -88 -37 -39 -27 -45 -36 -134
-189 -152 -261 -384 -491 -677 -672 -51 -31 -95 -55 -98 -53 -2 3 3 33 12 68
19 73 55 308 55 360 0 35 1 37 43 42 62 8 97 51 97 118 0 45 -4 55 -34 85 -25
25 -43 34 -68 34 l-34 0 -12 118 c-29 287 -96 506 -250 815 -6 11 68 1 207
-30z"/>
<path d="M758 2304 c-77 -41 -75 -169 2 -209 84 -43 180 13 180 105 0 92 -99
149 -182 104z"/>
<path d="M1160 1898 c-69 -47 -73 -138 -9 -193 56 -46 152 -27 185 37 56 108
-75 225 -176 156z"/>
</g>
</svg>
