<?xml version="1.0" standalone="no"?>
<!DOCTYPE svg PUBLIC "-//W3C//DTD SVG 20010904//EN"
 "http://www.w3.org/TR/2001/REC-SVG-20010904/DTD/svg10.dtd">
<svg version="1.0" xmlns="http://www.w3.org/2000/svg"
 width="512.000000pt" height="512.000000pt" viewBox="0 0 512.000000 512.000000"
 preserveAspectRatio="xMidYMid meet">

<g transform="translate(50,450) scale(0.08,-0.08)"
fill="#000000" stroke="none">
<path d="M2262 5069 c-566 -32 -1112 -199 -1592 -487 -170 -102 -305 -199
-367 -264 -92 -98 -143 -228 -143 -363 0 -155 50 -273 159 -378 109 -105 217
-148 376 -148 139 0 218 29 360 131 141 102 414 256 531 300 l26 10 -26 -31
c-39 -46 -36 -101 8 -145 46 -46 85 -45 222 7 196 74 407 125 629 154 159 21
472 21 630 0 300 -39 594 -141 815 -282 56 -36 82 -46 114 -46 114 0 156 124
69 202 -24 21 -29 29 -14 21 40 -21 106 -93 131 -145 31 -63 40 -192 17 -257
-11 -33 -1673 -2844 -1732 -2931 -11 -15 -105 138 -720 1175 -390 656 -717
1205 -727 1220 -42 61 -150 58 -189 -6 -42 -69 -78 -2 759 -1416 707 -1194
782 -1315 815 -1333 47 -24 97 -17 133 21 23 24 1804 3015 1859 3123 35 68 55
158 55 247 0 295 -160 478 -578 661 -889 390 -2021 275 -2860 -291 -239 -160
-223 -153 -327 -153 -78 0 -97 4 -141 27 -177 93 -216 311 -83 463 18 20 106
85 196 145 395 262 844 434 1318 504 982 145 1993 -170 2708 -843 53 -50 107
-93 121 -97 88 -22 167 56 144 142 -15 59 -274 290 -500 447 -150 104 -271
174 -463 268 -350 170 -684 271 -1073 324 -106 14 -432 36 -497 33 -16 0 -90
-4 -163 -9z m366 -966 c-10 -2 -28 -2 -40 0 -13 2 -5 4 17 4 22 1 32 -1 23 -4z
m320 0 c-10 -2 -28 -2 -40 0 -13 2 -5 4 17 4 22 1 32 -1 23 -4z m-465 -10 c-7
-2 -19 -2 -25 0 -7 3 -2 5 12 5 14 0 19 -2 13 -5z m580 0 c-7 -2 -19 -2 -25 0
-7 3 -2 5 12 5 14 0 19 -2 13 -5z m-666 -9 c-3 -3 -12 -4 -19 -1 -8 3 -5 6 6
6 11 1 17 -2 13 -5z m750 0 c-3 -3 -12 -4 -19 -1 -8 3 -5 6 6 6 11 1 17 -2 13
-5z m60 -10 c-3 -3 -12 -4 -19 -1 -8 3 -5 6 6 6 11 1 17 -2 13 -5z"/>
<path d="M3025 3509 c-96 -14 -211 -77 -284 -154 -100 -108 -141 -210 -141
-355 0 -150 44 -256 151 -363 272 -273 725 -165 851 202 32 93 32 230 -1 324
-83 242 -320 385 -576 346z"/>
<path d="M2330 2041 c-142 -44 -237 -178 -227 -321 8 -120 71 -216 175 -267
76 -38 191 -40 267 -5 145 66 216 229 170 387 -22 76 -114 173 -189 198 -51
17 -152 21 -196 8z"/>
</g>
</svg>
