<?xml version="1.0" standalone="no"?>
<!DOCTYPE svg PUBLIC "-//W3C//DTD SVG 20010904//EN"
 "http://www.w3.org/TR/2001/REC-SVG-20010904/DTD/svg10.dtd">
<svg version="1.0" xmlns="http://www.w3.org/2000/svg"
 width="256.000000pt" height="256.000000pt" viewBox="0 0 256.000000 256.000000"
 preserveAspectRatio="xMidYMid meet">

<g transform="translate(0.000000,256.000000) scale(0.100000,-0.100000)"
fill="#000000" stroke="none">
<path d="M1605 1676 c-93 -42 -131 -155 -84 -248 l21 -41 43 43 c37 37 42 45
32 61 -18 29 10 73 48 77 38 3 49 -4 71 -52 44 -91 134 -49 110 50 -9 34 -65
95 -103 110 -41 17 -99 17 -138 0z"/>
<path d="M1988 1670 c-61 -33 -83 -74 -83 -155 0 -52 5 -77 19 -98 l19 -28 43
42 c32 32 41 46 33 55 -17 21 -6 55 24 78 26 19 30 19 55 6 17 -10 29 -28 35
-52 10 -44 40 -73 87 -85 22 -6 41 -19 50 -36 13 -24 13 -28 -6 -54 -28 -37
-54 -39 -99 -9 -67 46 -85 38 -216 -91 l-96 -95 -55 31 c-86 49 -128 49 -308
6 -196 -46 -307 -82 -331 -106 -38 -38 -12 -99 42 -99 13 0 48 9 78 21 30 11
124 38 210 61 164 42 206 45 255 12 l28 -17 -26 -16 c-30 -18 -36 -30 -80
-153 -70 -196 -120 -263 -234 -316 -47 -21 -78 -27 -172 -32 -85 -4 -122 -10
-141 -23 l-26 -18 -22 52 c-24 55 -32 146 -18 216 7 35 5 45 -12 62 -25 25
-63 27 -85 6 -43 -43 -46 -212 -6 -317 28 -74 95 -165 150 -203 l43 -30 -339
-5 c-239 -4 -345 -9 -360 -17 -27 -15 -48 -65 -42 -98 l5 -25 -166 0 c-187 0
-211 -7 -211 -60 0 -63 -62 -60 1090 -60 1152 0 1090 -3 1090 60 0 41 -32 60
-100 60 l-55 0 -1 138 c-2 179 -25 278 -100 430 l-56 113 12 65 c7 36 10 87 7
113 l-6 48 94 93 93 93 38 -18 c50 -24 139 -17 182 14 111 78 86 262 -41 310
-15 6 -32 23 -38 38 -36 96 -159 141 -251 93z"/>
<path d="M975 1230 c-100 -13 -185 -39 -284 -86 -315 -149 -517 -444 -547
-800 -6 -75 -5 -83 15 -103 26 -26 63 -27 83 -3 9 10 18 48 22 97 14 159 70
313 160 438 139 196 367 321 621 343 49 4 87 13 98 22 23 20 22 57 -3 82 -22
22 -57 24 -165 10z"/>
<path d="M1032 974 c-45 -31 -17 -104 40 -104 53 0 79 74 36 104 -12 9 -29 16
-38 16 -9 0 -26 -7 -38 -16z"/>
<path d="M2422 124 c-32 -22 -30 -69 4 -91 24 -15 29 -15 53 -2 36 20 41 71 9
93 -28 20 -38 20 -66 0z"/>
</g>
</svg>
