<?xml version="1.0" standalone="no"?>
<!DOCTYPE svg PUBLIC "-//W3C//DTD SVG 20010904//EN"
 "http://www.w3.org/TR/2001/REC-SVG-20010904/DTD/svg10.dtd">
<svg version="1.0" xmlns="http://www.w3.org/2000/svg"
 width="512.000000pt" height="512.000000pt" viewBox="0 0 512.000000 512.000000"
 preserveAspectRatio="xMidYMid meet">

<g transform="translate(50,400) scale(0.08,-0.08)"
fill="#000000" stroke="none">
<path d="M3105 3394 c-373 -83 -656 -378 -715 -747 -14 -87 -8 -302 10 -361 6
-22 25 -52 40 -68 23 -23 37 -28 75 -28 40 0 52 5 82 35 36 36 36 36 29 103
-18 192 -18 209 -2 292 37 202 178 391 356 478 47 23 114 49 150 59 87 22 245
21 330 -1 304 -81 510 -348 510 -660 0 -116 -20 -199 -72 -306 -54 -110 -177
-236 -285 -293 -62 -33 -342 -116 -391 -117 -10 0 -8 8 6 28 34 47 81 148 108
229 50 156 88 464 62 512 -50 92 -191 81 -217 -17 -6 -20 -15 -86 -22 -147
-32 -306 -133 -511 -314 -635 -51 -35 -191 -106 -226 -115 -22 -5 -26 -1 -47
62 -113 326 -365 609 -633 713 -122 47 -207 62 -344 62 -133 0 -227 -16 -369
-63 -428 -142 -752 -535 -806 -977 -6 -48 -18 -117 -25 -154 -18 -85 -6 -132
44 -165 40 -27 71 -29 117 -7 44 21 70 77 85 179 43 311 114 476 276 646 162
169 362 270 595 299 138 18 284 -6 396 -64 49 -25 38 -36 -35 -36 -269 -1
-503 -191 -557 -453 -30 -146 -15 -365 38 -549 32 -109 86 -227 159 -345 31
-50 57 -93 57 -96 0 -16 -288 -56 -410 -57 -136 0 -205 -55 -205 -160 0 -70
18 -99 89 -148 l48 -32 -96 0 c-110 0 -147 -13 -171 -60 -8 -16 -15 -42 -15
-58 0 -42 39 -95 80 -108 25 -8 553 -13 1825 -18 1761 -6 1791 -5 1822 14 35
21 63 66 63 102 0 30 -33 83 -62 100 -13 7 -58 15 -101 18 l-78 5 34 45 c151
194 187 474 90 704 -128 306 -464 493 -778 435 -77 -14 -111 -32 -130 -69 -26
-51 -20 -97 20 -137 l35 -35 122 7 c192 11 285 -21 399 -134 237 -237 174
-625 -124 -766 -187 -89 -385 -59 -536 81 -92 85 -119 150 -202 483 -38 156
-67 286 -65 289 15 14 266 -223 427 -405 111 -124 143 -143 204 -123 46 15 85
63 85 103 0 47 -23 83 -137 210 -203 227 -416 412 -578 502 -36 21 -65 39 -63
41 2 1 101 27 219 58 127 31 247 69 291 89 256 118 433 332 510 616 32 117 30
323 -5 452 -85 322 -323 559 -652 652 -96 27 -322 33 -420 11z m-269 -2024
c40 -15 98 -74 118 -118 9 -21 54 -191 100 -379 88 -360 116 -440 189 -536 21
-26 37 -49 37 -52 0 -3 -209 -5 -465 -5 -256 0 -465 4 -465 8 0 4 21 28 46 52
142 138 243 358 275 598 11 85 7 317 -7 411 l-7 44 75 -6 c42 -4 88 -11 104
-17z"/>
<path d="M170 1019 c-98 -17 -136 -59 -131 -147 0 -13 16 -39 35 -58 l34 -34
109 6 c90 6 119 4 164 -11 76 -24 153 -79 196 -139 49 -69 71 -86 115 -86 54
0 85 15 108 52 28 47 25 87 -12 144 -132 203 -380 312 -618 273z"/>
<path d="M4881 254 c-75 -63 -48 -176 50 -206 72 -21 144 38 144 120 0 38 -5
48 -37 78 -49 44 -110 48 -157 8z"/>
</g>
</svg>
