<?xml version="1.0" standalone="no"?>
<!DOCTYPE svg PUBLIC "-//W3C//DTD SVG 20010904//EN"
 "http://www.w3.org/TR/2001/REC-SVG-20010904/DTD/svg10.dtd">
<svg version="1.0" xmlns="http://www.w3.org/2000/svg"
 width="512.000000pt" height="512.000000pt" viewBox="0 0 512.000000 512.000000"
 preserveAspectRatio="xMidYMid meet">

<g transform="translate(30.000000,330.000000) scale(0.085,-0.085)"
fill="#000000" stroke="none">
<path d="M646 2159 c-36 -29 -46 -51 -57 -127 -20 -140 -118 -234 -259 -249
-70 -7 -105 -30 -127 -80 -21 -51 2 -114 49 -139 35 -18 132 -18 194 1 27 8
52 15 55 15 3 0 -8 -39 -25 -87 -26 -78 -30 -102 -30 -203 0 -102 4 -124 30
-200 37 -106 87 -182 178 -272 92 -91 276 -239 400 -322 83 -56 105 -66 142
-66 31 0 51 7 73 26 l32 26 67 -35 c80 -42 161 -77 297 -128 l100 -38 -523 -1
c-464 0 -528 -2 -558 -16 -85 -41 -85 -167 0 -208 31 -15 184 -16 1776 -16
1592 0 1745 1 1776 16 85 41 85 167 0 208 -29 13 -74 16 -293 16 l-258 1 132
68 c216 112 402 244 595 422 117 108 187 208 224 322 24 71 28 99 28 202 0
118 -11 170 -58 277 -7 15 -2 15 54 -3 73 -22 170 -25 208 -5 47 25 70 88 49
139 -22 50 -57 73 -127 80 -104 11 -189 69 -234 159 -14 29 -26 69 -26 90 0
113 -90 179 -180 133 -47 -24 -64 -67 -56 -145 3 -37 13 -86 21 -110 8 -24 14
-45 12 -46 -2 -2 -30 7 -62 21 -177 71 -390 55 -553 -42 -35 -21 -107 -77
-160 -126 -214 -195 -445 -315 -722 -374 -121 -26 -430 -25 -550 1 -287 62
-502 175 -734 385 -114 104 -219 162 -337 187 -102 22 -231 14 -332 -20 -43
-14 -79 -26 -82 -26 -2 0 2 19 11 41 24 70 29 170 10 207 -31 60 -119 81 -170
41z m539 -485 c83 -21 124 -48 245 -158 228 -208 489 -341 797 -406 128 -27
381 -37 523 -21 358 42 681 193 960 448 114 103 187 141 287 150 195 16 369
-106 418 -293 17 -67 19 -134 5 -185 l-10 -37 -41 14 c-58 21 -102 5 -195 -67
-366 -285 -772 -459 -1235 -530 -207 -32 -553 -32 -758 0 -257 39 -502 113
-725 216 -156 72 -239 56 -297 -57 l-14 -26 -85 65 c-134 101 -268 223 -305
278 -66 97 -88 209 -61 315 59 228 267 353 491 294z"/>
<path d="M4735 266 c-42 -18 -65 -57 -65 -110 0 -85 86 -138 164 -101 87 41
88 168 2 209 -41 19 -61 20 -101 2z"/>
</g>
</svg>
