<?xml version="1.0" standalone="no"?>
<!DOCTYPE svg PUBLIC "-//W3C//DTD SVG 20010904//EN"
 "http://www.w3.org/TR/2001/REC-SVG-20010904/DTD/svg10.dtd">
<svg version="1.0" xmlns="http://www.w3.org/2000/svg"
 width="512.000000pt" height="512.000000pt" viewBox="0 0 512.000000 512.000000"
 preserveAspectRatio="xMidYMid meet">

<g transform="translate(0.000000,512.000000) scale(0.100000,-0.100000)"
fill="#000000" stroke="none">
<path d="M1260 5064 c-113 -30 -205 -105 -256 -209 -117 -240 26 -517 294
-567 208 -39 413 111 454 330 28 150 -50 319 -183 399 -99 59 -204 75 -309 47z
m181 -247 c106 -71 106 -203 0 -274 -98 -66 -241 15 -241 137 0 87 73 160 160
160 32 0 58 -7 81 -23z"/>
<path d="M2840 4800 c-150 -19 -279 -65 -397 -142 -83 -54 -442 -399 -470
-452 -40 -77 38 -177 126 -161 30 6 69 39 221 189 193 191 239 228 344 277
169 79 395 77 570 -5 76 -35 1454 -951 1504 -999 57 -55 90 -120 102 -204 13
-92 13 -990 -1 -1073 -21 -129 -5 -111 -867 -972 -438 -437 -819 -810 -845
-828 -207 -138 -474 -158 -689 -50 -31 16 -377 242 -770 502 -746 495 -753
501 -801 605 -21 46 -22 63 -27 393 -4 254 -8 351 -18 367 -28 49 -106 67
-163 37 -56 -28 -59 -51 -59 -396 0 -354 7 -407 66 -527 67 -136 88 -153 879
-679 396 -264 747 -493 780 -510 279 -139 612 -127 890 34 73 42 157 123 921
888 903 904 877 874 920 1021 16 54 18 120 21 614 5 621 2 653 -63 788 -67
140 -79 150 -869 676 -450 300 -754 497 -811 523 -149 71 -340 104 -494 84z"/>
<path d="M595 3986 c-149 -29 -264 -94 -373 -211 -121 -129 -176 -272 -176
-455 0 -198 57 -333 199 -475 141 -142 276 -198 475 -199 197 -1 333 56 475
199 142 142 199 277 199 475 0 198 -57 333 -199 475 -98 98 -183 149 -300 180
-86 22 -217 27 -300 11z m285 -254 c110 -43 208 -141 252 -252 32 -79 32 -241
0 -320 -44 -111 -141 -208 -252 -252 -79 -32 -241 -32 -320 0 -288 116 -372
481 -163 713 45 50 120 97 191 120 77 26 214 21 292 -9z"/>
<path d="M2185 3668 c-83 -16 -174 -66 -241 -132 -188 -188 -188 -484 0 -672
188 -188 484 -188 672 0 188 188 188 484 0 672 -116 115 -270 163 -431 132z
m190 -247 c156 -70 194 -271 74 -390 -151 -151 -409 -44 -409 169 0 133 107
240 240 240 32 0 72 -8 95 -19z"/>
<path d="M4130 2479 c-14 -5 -239 -223 -500 -483 -345 -344 -491 -483 -535
-509 -194 -115 -443 -128 -641 -33 -38 18 -285 177 -549 353 -264 176 -492
323 -507 326 -36 9 -88 -13 -116 -48 -27 -34 -29 -100 -6 -134 22 -30 953
-650 1054 -701 197 -99 435 -122 655 -63 74 20 207 80 272 123 57 39 988 963
1009 1002 33 63 5 136 -62 164 -38 16 -40 16 -74 3z"/>
</g>
</svg>
