<?xml version="1.0" standalone="no"?>
<!DOCTYPE svg PUBLIC "-//W3C//DTD SVG 20010904//EN"
 "http://www.w3.org/TR/2001/REC-SVG-20010904/DTD/svg10.dtd">
<svg version="1.0" xmlns="http://www.w3.org/2000/svg"
 width="512.000000pt" height="512.000000pt" viewBox="0 0 512.000000 512.000000"
 preserveAspectRatio="xMidYMid meet">

<g transform="translate(0.000000,512.000000) scale(0.100000,-0.100000)"
fill="#000000" stroke="none">
<path d="M743 4460 c-59 -35 -63 -56 -63 -290 l0 -212 200 -1481 c110 -815
203 -1494 206 -1508 3 -14 19 -39 35 -55 l30 -29 638 -3 637 -3 35 24 c19 12
39 34 45 47 7 14 102 698 213 1520 l201 1495 0 211 c0 203 -1 212 -23 245 -12
18 -34 39 -47 46 -20 10 -250 13 -1050 13 -999 0 -1026 -1 -1057 -20z m1937
-360 l0 -140 -880 0 -880 0 0 140 0 140 880 0 880 0 0 -140z m-120 -1032 c-1
-7 -25 -186 -53 -398 l-53 -385 -471 -3 -471 -2 -30 25 c-17 14 -35 40 -41 58
-12 39 -91 564 -91 608 0 23 10 42 39 70 l39 39 566 0 c446 0 566 -3 566 -12z"/>
<path d="M4183 4460 c-59 -36 -57 -18 -64 -605 -7 -657 -6 -649 -149 -955
-100 -213 -139 -341 -159 -532 -7 -62 -11 -485 -11 -1165 0 -1042 1 -1069 20
-1100 49 -81 156 -80 203 2 9 15 13 325 17 1165 l6 1145 26 100 c30 111 61
191 119 307 87 172 139 348 159 530 5 54 10 308 10 566 l0 469 -23 34 c-40 60
-97 74 -154 39z"/>
<path d="M3503 4344 c-62 -31 -63 -41 -63 -464 0 -425 1 -434 65 -464 27 -13
73 -16 244 -16 l211 0 0 480 0 480 -212 0 c-173 0 -219 -3 -245 -16z"/>
<path d="M1143 660 c-59 -36 -63 -55 -63 -300 0 -245 4 -264 63 -300 31 -19
55 -20 657 -20 480 0 631 3 650 13 13 7 35 28 47 46 22 33 23 41 23 258 0 248
-4 267 -63 303 -31 19 -55 20 -657 20 -602 0 -626 -1 -657 -20z"/>
</g>
</svg>
