<?xml version="1.0" standalone="no"?>
<!DOCTYPE svg PUBLIC "-//W3C//DTD SVG 20010904//EN"
 "http://www.w3.org/TR/2001/REC-SVG-20010904/DTD/svg10.dtd">
<svg version="1.0" xmlns="http://www.w3.org/2000/svg"
 width="160.000000pt" height="160.000000pt" viewBox="0 0 160.000000 160.000000"
 preserveAspectRatio="xMidYMid meet">

<g transform="translate(0.000000,160.000000) scale(0.100000,-0.100000)"
fill="#000000" stroke="none">
<path d="M580 1364 c-226 -26 -281 -41 -338 -90 -118 -100 -134 -301 -32 -399
l30 -29 0 -197 c0 -109 5 -220 11 -247 12 -60 63 -123 123 -154 36 -19 53 -21
141 -18 129 6 442 6 570 0 112 -4 150 7 204 62 62 63 66 82 69 328 l4 224 33
38 c94 103 79 291 -31 388 -50 43 -84 57 -196 76 -89 15 -503 28 -588 18z
m498 -101 c28 -17 59 -48 77 -77 26 -44 30 -58 30 -125 0 -64 -4 -83 -26 -121
-15 -25 -36 -54 -48 -64 -20 -18 -21 -28 -21 -230 0 -217 -7 -267 -39 -308
-19 -23 -22 -23 -263 -27 -133 -2 -272 -4 -308 -5 -53 -1 -71 3 -96 21 -59 42
-64 67 -64 313 l0 222 -40 45 c-49 56 -63 99 -58 173 9 123 86 181 268 199 58
6 119 13 135 15 17 3 115 3 218 1 188 -3 188 -3 235 -32z"/>
<path d="M525 650 c-7 -23 10 -50 30 -50 20 0 37 27 30 50 -4 13 -15 20 -30
20 -15 0 -26 -7 -30 -20z"/>
<path d="M624 505 c-10 -25 4 -45 30 -45 13 0 26 7 30 15 9 25 -5 45 -30 45
-14 0 -27 -7 -30 -15z"/>
</g>
</svg>
