<?xml version="1.0" standalone="no"?>
<!DOCTYPE svg PUBLIC "-//W3C//DTD SVG 20010904//EN"
 "http://www.w3.org/TR/2001/REC-SVG-20010904/DTD/svg10.dtd">
<svg version="1.0" xmlns="http://www.w3.org/2000/svg"
 width="512.000000pt" height="512.000000pt" viewBox="0 0 512.000000 512.000000"
 preserveAspectRatio="xMidYMid meet">

<g transform="translate(0.000000,512.000000) scale(0.100000,-0.100000)"
fill="#000000" stroke="none">
<path d="M2790 4463 c-67 -35 -70 -49 -70 -403 0 -358 2 -369 74 -404 36 -17
43 -18 79 -5 22 8 50 27 61 42 20 27 21 42 24 352 2 266 0 330 -12 359 -26 63
-96 90 -156 59z"/>
<path d="M2230 4063 c-67 -34 -70 -52 -70 -379 l0 -291 -79 -94 c-43 -52 -165
-184 -271 -294 -260 -271 -395 -418 -505 -555 -243 -300 -388 -582 -441 -857
-26 -132 -23 -334 4 -447 113 -458 559 -762 1017 -692 174 26 351 101 379 161
33 69 11 117 -82 179 -174 115 -281 299 -301 517 -10 106 -27 137 -88 158 -36
13 -43 12 -79 -5 -26 -12 -45 -32 -58 -57 -16 -35 -17 -46 -6 -139 23 -204 89
-355 222 -511 62 -71 60 -72 -122 -71 -120 0 -143 3 -208 26 -107 39 -177 83
-262 168 -136 136 -190 260 -197 455 -15 370 170 731 628 1222 63 67 188 199
279 295 203 213 319 345 371 422 l39 58 0 319 c0 253 -3 327 -14 354 -26 62
-96 88 -156 58z"/>
<path d="M2805 3471 c-34 -15 -58 -48 -209 -285 -121 -191 -146 -236 -146
-267 0 -94 121 -147 191 -83 10 9 60 84 111 165 51 82 96 149 99 149 4 0 37
-35 75 -77 38 -43 170 -181 293 -308 392 -403 563 -613 688 -845 148 -274 192
-566 116 -781 -90 -261 -313 -432 -594 -458 -106 -10 -137 -27 -158 -88 -13
-36 -12 -43 5 -79 13 -26 32 -45 57 -58 36 -17 48 -18 137 -7 228 25 405 112
565 276 371 379 344 970 -70 1551 -132 185 -242 309 -600 680 -144 149 -306
323 -359 387 -53 64 -99 118 -104 120 -17 11 -78 16 -97 8z"/>
<path d="M2924 2306 c-58 -58 -51 -87 64 -286 83 -144 186 -359 218 -457 26
-78 29 -102 29 -213 0 -114 -3 -133 -31 -211 -94 -264 -314 -432 -602 -459
-109 -10 -156 -22 -223 -56 -133 -67 -171 -157 -99 -234 24 -25 35 -30 77 -30
40 0 55 6 92 35 74 59 148 59 222 0 36 -28 53 -35 90 -35 61 0 105 38 115 98
6 39 10 43 69 71 95 44 165 92 245 167 169 160 265 365 285 609 17 205 -72
464 -295 855 -87 153 -113 180 -176 180 -39 0 -51 -5 -80 -34z"/>
</g>
</svg>
