<?xml version="1.0" standalone="no"?>
<!DOCTYPE svg PUBLIC "-//W3C//DTD SVG 20010904//EN"
 "http://www.w3.org/TR/2001/REC-SVG-20010904/DTD/svg10.dtd">
<svg version="1.0" xmlns="http://www.w3.org/2000/svg"
 width="512.000000pt" height="512.000000pt" viewBox="0 0 512.000000 512.000000"
 preserveAspectRatio="xMidYMid meet">

<g transform="translate(0.000000,512.000000) scale(0.100000,-0.100000)"
fill="#000000" stroke="none">
<path d="M2203 4845 c-60 -26 -68 -50 -71 -234 -4 -199 1 -245 35 -278 16 -17
23 -32 19 -47 -3 -11 -10 -91 -16 -176 -9 -120 -9 -192 1 -318 15 -195 7 -242
-52 -332 -35 -51 -55 -68 -137 -116 -125 -73 -193 -126 -270 -208 -74 -79
-117 -160 -132 -247 -8 -45 -10 -415 -8 -1219 l3 -1155 26 -55 c37 -80 81
-125 157 -162 l67 -33 710 -3 c635 -3 717 -1 772 13 109 30 199 113 229 212
12 38 14 245 14 1219 0 1122 -1 1175 -19 1233 -26 83 -67 144 -153 227 -74 71
-146 124 -250 183 -81 46 -154 129 -174 199 -15 51 -16 75 -5 232 12 165 4
419 -16 497 -3 15 3 32 21 53 35 42 38 70 34 272 -3 195 -10 217 -73 244 -49
20 -665 20 -712 -1z m501 -1277 c2 -7 8 -35 15 -63 31 -133 143 -286 257 -350
100 -56 213 -137 254 -181 74 -81 80 -102 80 -326 l0 -198 -750 0 -750 0 0
202 c0 183 2 206 21 244 30 63 143 164 265 235 122 73 188 133 238 219 34 58
76 174 76 211 0 18 9 19 145 19 108 0 146 -3 149 -12z m26 -1338 c92 -25 260
-131 260 -163 0 -7 -31 -43 -69 -81 l-68 -68 -49 37 c-87 67 -126 79 -244 80
-93 0 -112 -3 -160 -26 -31 -14 -73 -41 -94 -59 l-37 -33 -75 73 -74 74 28 29
c124 133 379 193 582 137z m-21 -326 c108 -58 167 -170 159 -298 -5 -80 -29
-135 -84 -196 -115 -127 -333 -127 -448 0 -55 61 -79 116 -84 196 -5 86 14
152 63 217 64 84 144 119 260 114 66 -3 90 -8 134 -33z m221 -794 l0 -110
-370 0 -370 0 0 110 0 110 370 0 370 0 0 -110z m378 -506 c-7 -114 61 -104
-743 -104 -381 0 -701 3 -710 6 -25 10 -45 59 -45 114 l0 50 751 0 751 0 -4
-66z"/>
</g>
</svg>
