<?xml version="1.0" standalone="no"?>
<!DOCTYPE svg PUBLIC "-//W3C//DTD SVG 20010904//EN"
 "http://www.w3.org/TR/2001/REC-SVG-20010904/DTD/svg10.dtd">
<svg version="1.0" xmlns="http://www.w3.org/2000/svg"
 width="512.000000pt" height="512.000000pt" viewBox="0 0 512.000000 512.000000"
 preserveAspectRatio="xMidYMid meet">

<g transform="translate(0.000000,512.000000) scale(0.100000,-0.100000)"
fill="#000000" stroke="none">
<path d="M2918 4351 c-21 -17 -393 -477 -455 -564 -42 -57 -22 -141 39 -173
64 -33 342 -2 559 62 225 67 408 58 582 -29 65 -32 101 -60 175 -133 50 -51
92 -96 92 -101 0 -4 -46 -8 -102 -8 -89 -1 -111 -4 -160 -27 -75 -35 -138 -94
-174 -165 l-29 -58 -1 -305 c-1 -316 -14 -479 -54 -718 -84 -492 -268 -899
-455 -1007 -72 -42 -107 -46 -192 -24 -104 26 -263 26 -368 -1 -43 -11 -119
-39 -169 -62 -90 -42 -93 -43 -201 -43 -103 0 -114 2 -177 32 -93 44 -145 96
-252 253 -266 388 -406 730 -473 1160 -22 140 -25 561 -5 679 27 161 93 293
197 397 178 179 427 248 672 185 73 -19 86 -20 115 -8 46 20 69 49 75 95 16
116 -101 168 -377 166 -138 -1 -165 -4 -243 -27 -325 -99 -561 -341 -651 -667
-44 -159 -56 -597 -22 -824 70 -474 209 -832 485 -1247 151 -228 224 -304 352
-368 200 -100 420 -95 639 15 72 36 182 57 261 50 70 -6 136 -27 239 -74 79
-36 196 -62 282 -62 156 1 337 73 444 178 66 64 263 350 357 517 202 360 323
780 346 1201 10 180 -3 447 -27 567 -75 366 -363 653 -732 729 -115 24 -308
20 -405 -7 -127 -37 -270 -73 -274 -70 -2 2 46 66 107 142 60 76 121 156 136
177 42 63 32 136 -24 169 -38 23 -101 22 -132 -2z"/>
</g>
</svg>
