<?xml version="1.0" standalone="no"?>
<!DOCTYPE svg PUBLIC "-//W3C//DTD SVG 20010904//EN"
 "http://www.w3.org/TR/2001/REC-SVG-20010904/DTD/svg10.dtd">
<svg version="1.0" xmlns="http://www.w3.org/2000/svg"
 width="512.000000pt" height="512.000000pt" viewBox="0 0 512.000000 512.000000"
 preserveAspectRatio="xMidYMid meet">

<g transform="translate(0.000000,512.000000) scale(0.100000,-0.100000)"
fill="#000000" stroke="none">
<path d="M2521 5057 c-19 -7 -44 -25 -55 -40 -20 -27 -21 -42 -24 -355 l-3
-327 -94 184 c-51 101 -103 192 -116 202 -34 26 -109 25 -142 -2 -15 -11 -32
-38 -38 -60 -12 -39 -11 -42 76 -219 49 -99 87 -181 84 -183 -2 -2 -56 -9
-119 -16 -224 -23 -477 -85 -626 -151 -227 -102 -446 -287 -586 -496 -224
-334 -291 -751 -188 -1159 96 -379 350 -707 775 -997 163 -112 226 -149 489
-286 263 -136 280 -141 336 -87 l26 25 90 -56 c124 -78 120 -72 91 -130 -46
-94 -69 -242 -44 -290 16 -31 205 -220 247 -248 54 -35 136 -10 166 52 26 56
12 86 -93 194 -107 110 -105 105 -56 207 31 65 121 156 189 192 77 40 348 186
469 252 247 135 499 321 660 488 320 332 459 686 442 1123 -14 348 -135 641
-368 890 -236 252 -520 396 -909 460 -79 13 -256 36 -282 36 -4 0 31 77 77
171 47 94 85 182 85 195 0 61 -56 114 -119 114 -66 0 -76 -13 -181 -219 l-99
-196 -1 318 c0 251 -3 325 -14 352 -24 56 -85 82 -145 62z m-261 -1112 c127
-30 124 -29 160 -108 39 -85 63 -114 104 -125 44 -12 324 3 431 22 178 33 301
86 375 161 l42 43 52 -15 c28 -8 89 -31 136 -51 l85 -36 -44 -8 c-57 -10 -114
-48 -148 -99 -21 -33 -28 -57 -31 -109 -4 -66 -3 -70 56 -181 97 -184 122
-279 82 -319 -17 -17 -33 -20 -120 -20 -108 0 -137 -9 -179 -54 -31 -33 -33
-94 -5 -133 37 -51 76 -63 207 -63 137 0 157 -10 157 -79 0 -74 21 -71 -563
-71 -425 0 -523 -3 -545 -14 -101 -53 -102 -167 -1 -218 31 -16 73 -18 426
-18 l392 0 20 -26 c46 -58 19 -102 -94 -155 -141 -66 -176 -69 -859 -69 -656
0 -663 -1 -770 -58 -110 -59 -220 -200 -233 -301 l-6 -40 -49 42 c-179 150
-353 423 -412 646 -63 236 -55 523 21 721 39 103 130 269 184 337 137 171 371
329 570 383 147 41 422 48 559 15z"/>
<path d="M2499 275 c-14 -7 -33 -32 -43 -53 -15 -34 -16 -46 -6 -76 26 -80
112 -110 181 -63 64 43 69 126 9 180 -35 31 -96 36 -141 12z"/>
</g>
</svg>
