<?xml version="1.0" standalone="no"?>
<!DOCTYPE svg PUBLIC "-//W3C//DTD SVG 20010904//EN"
 "http://www.w3.org/TR/2001/REC-SVG-20010904/DTD/svg10.dtd">
<svg version="1.0" xmlns="http://www.w3.org/2000/svg"
 width="512.000000pt" height="512.000000pt" viewBox="0 0 512.000000 512.000000"
 preserveAspectRatio="xMidYMid meet">

<g transform="translate(0.000000,512.000000) scale(0.100000,-0.100000)"
fill="#000000" stroke="none">
<path d="M2503 5060 c-63 -38 -63 -37 -63 -482 0 -382 1 -405 20 -435 51 -85
160 -80 206 9 11 22 14 105 14 431 0 404 0 404 -23 438 -40 60 -97 74 -154 39z"/>
<path d="M2035 4711 c-34 -15 -66 -56 -71 -92 -3 -19 15 -150 39 -292 38 -218
48 -262 67 -282 29 -31 81 -48 119 -40 39 8 81 55 87 96 3 19 -15 150 -40 293
-42 246 -45 260 -73 288 -32 32 -91 45 -128 29z"/>
<path d="M2974 4691 c-42 -26 -50 -54 -69 -251 -30 -316 -44 -362 -131 -438
-66 -59 -127 -78 -269 -85 -357 -19 -603 -127 -744 -328 -61 -86 -88 -155
-109 -274 -13 -79 -14 -127 -4 -380 37 -939 198 -1734 533 -2642 48 -132 142
-211 284 -240 149 -30 303 13 392 110 53 57 50 51 126 262 315 870 486 1798
491 2665 1 218 -1 241 -22 315 -31 107 -75 187 -146 262 -70 75 -156 134 -251
170 -38 15 -72 28 -74 30 -2 1 9 17 23 34 42 49 85 143 101 217 8 37 24 162
35 278 19 190 20 216 6 247 -26 63 -110 86 -172 48z m-149 -1035 c202 -41 333
-134 384 -271 19 -52 39 -179 22 -139 -16 36 -60 64 -102 64 -21 0 -67 -7
-104 -15 -114 -27 -265 -45 -425 -51 -178 -7 -210 -14 -245 -55 -47 -57 -20
-145 53 -176 33 -14 62 -14 258 -3 249 14 258 12 311 -57 25 -32 28 -44 27
-107 -1 -82 -26 -142 -70 -171 -17 -11 -67 -23 -125 -31 -111 -14 -133 -23
-159 -67 -24 -38 -25 -68 -5 -111 21 -44 45 -56 130 -65 124 -14 173 -70 161
-185 -24 -234 -105 -654 -188 -976 -72 -278 -75 -297 -54 -339 31 -60 119 -78
167 -35 11 9 19 14 19 9 0 -26 -147 -455 -180 -527 -7 -15 -27 -34 -45 -43
-43 -20 -147 -20 -190 1 -39 18 -47 36 -134 281 -197 562 -339 1185 -400 1758
-12 105 -26 233 -31 285 -6 52 -12 228 -13 390 l-2 295 31 66 c73 154 206 243
427 285 90 17 380 11 482 -10z"/>
<path d="M2423 1666 c-42 -19 -65 -57 -65 -107 1 -52 24 -87 69 -106 68 -28
143 6 164 76 28 95 -75 179 -168 137z"/>
</g>
</svg>
