<?xml version="1.0" standalone="no"?>
<!DOCTYPE svg PUBLIC "-//W3C//DTD SVG 20010904//EN"
 "http://www.w3.org/TR/2001/REC-SVG-20010904/DTD/svg10.dtd">
<svg version="1.0" xmlns="http://www.w3.org/2000/svg"
 width="512.000000pt" height="512.000000pt" viewBox="0 0 512.000000 512.000000"
 preserveAspectRatio="xMidYMid meet">

<g transform="translate(0.000000,410.000000) scale(0.100000,-0.100000)"
fill="#000000" stroke="none">
<path d="M1066 2980 c-362 -54 -673 -101 -691 -104 -17 -4 -45 -20 -61 -37
l-29 -30 -11 -307 c-13 -343 -10 -322 -118 -772 -41 -173 -82 -362 -92 -420
-21 -134 -32 -812 -15 -905 23 -126 106 -243 215 -306 110 -63 51 -61 1587
-56 1515 4 1487 3 1879 63 330 51 574 112 978 245 341 113 360 123 369 200 4
38 1 50 -21 76 -15 18 -42 37 -61 43 -32 11 -56 5 -308 -79 -489 -162 -768
-228 -1167 -276 -274 -32 -416 -35 -1745 -35 -1281 0 -1342 1 -1380 19 -77 36
-115 102 -115 201 l0 60 1478 0 c880 0 1542 4 1637 10 296 19 560 59 830 126
225 56 787 233 812 256 40 37 48 73 35 152 -29 168 -141 301 -300 354 -38 13
-127 17 -482 23 -372 6 -455 10 -575 28 -181 28 -366 71 -485 113 -87 30 -95
35 -93 58 3 38 -25 107 -50 123 -54 34 -108 28 -157 -18 l-25 -23 -71 41 -71
41 5 61 c4 58 3 63 -26 92 -49 48 -115 51 -165 6 -19 -18 -17 -19 -128 85
l-46 43 18 37 c23 45 24 64 3 108 -27 56 -103 81 -157 53 -26 -14 -37 -2 -149
166 -84 127 -179 312 -222 433 -14 41 -31 82 -37 93 -15 29 -69 59 -104 58
-16 -1 -327 -45 -689 -99z m311 -640 c175 -86 229 -315 113 -474 -145 -196
-450 -162 -553 63 -31 66 -30 187 1 256 78 170 269 238 439 155z m3340 -1116
c39 -14 103 -73 103 -94 0 -5 -51 -25 -112 -44 -355 -109 -422 -129 -527 -155
-64 -16 -131 -31 -148 -35 l-33 -6 0 178 0 177 337 -3 c277 -2 346 -5 380 -18z"/>
</g>
</svg>
