<?xml version="1.0" standalone="no"?>
<!DOCTYPE svg PUBLIC "-//W3C//DTD SVG 20010904//EN"
 "http://www.w3.org/TR/2001/REC-SVG-20010904/DTD/svg10.dtd">
<svg version="1.0" xmlns="http://www.w3.org/2000/svg"
 width="512.000000pt" height="512.000000pt" viewBox="0 0 512.000000 512.000000"
 preserveAspectRatio="xMidYMid meet">

<g transform="translate(0.000000,512.000000) scale(0.100000,-0.100000)"
fill="#000000" stroke="none">
<path d="M3075 3916 c-38 -13 -164 -62 -280 -110 -748 -311 -1308 -663 -1872
-1177 -167 -153 -339 -330 -401 -414 -96 -130 -167 -307 -196 -490 -65 -411
-69 -753 -16 -1176 30 -234 53 -291 152 -386 122 -114 164 -123 631 -123 405
0 416 1 450 59 9 16 17 43 17 60 0 194 152 370 347 401 226 37 454 -149 454
-369 0 -66 19 -105 62 -131 31 -19 58 -20 1102 -20 1166 0 1141 -1 1247 57 62
34 137 109 171 171 56 103 57 116 57 863 0 741 -4 827 -50 1003 -76 295 -280
684 -511 978 -270 342 -786 746 -1039 813 -87 23 -241 19 -325 -9z m357 -250
c40 -21 116 -66 168 -100 512 -337 888 -812 1091 -1378 75 -210 74 -195 74
-1008 0 -579 -3 -733 -13 -763 -19 -52 -59 -96 -107 -118 -38 -18 -91 -19
-1045 -19 l-1005 0 -22 73 c-60 196 -221 357 -418 420 -101 32 -281 31 -380
-1 -197 -65 -370 -245 -419 -433 l-13 -54 -326 0 -325 0 -43 30 c-67 47 -85
95 -109 280 -43 336 -45 631 -5 940 16 129 19 145 42 248 l15 67 1500 0 1500
0 35 35 c33 33 35 39 31 86 -4 38 -12 58 -32 77 l-26 27 -1442 5 -1443 5 88
97 c167 185 481 464 742 660 426 321 839 545 1505 818 124 50 126 51 217 48
84 -4 99 -7 165 -42z"/>
<path d="M2659 3185 c-37 -20 -63 -78 -54 -123 11 -58 52 -88 138 -100 126
-19 213 -71 205 -123 -4 -32 -73 -81 -144 -105 -45 -14 -86 -19 -169 -18 -131
1 -199 22 -267 84 -51 47 -91 57 -141 37 -63 -27 -86 -110 -48 -173 23 -38 91
-94 149 -123 119 -60 317 -80 472 -47 98 21 226 85 285 141 127 124 132 299
12 419 -104 104 -352 178 -438 131z"/>
<path d="M3910 1622 c-216 -73 -340 -239 -340 -457 0 -143 50 -257 155 -353
99 -91 206 -127 350 -120 81 4 104 10 170 41 181 86 285 263 272 462 -3 46
-14 105 -27 137 -46 122 -156 232 -279 279 -80 31 -226 36 -301 11z m240 -242
c122 -63 169 -210 105 -329 -78 -143 -266 -171 -380 -56 -96 95 -96 233 -1
333 74 79 182 99 276 52z"/>
</g>
</svg>
