<?xml version="1.0" standalone="no"?>
<!DOCTYPE svg PUBLIC "-//W3C//DTD SVG 20010904//EN"
 "http://www.w3.org/TR/2001/REC-SVG-20010904/DTD/svg10.dtd">
<svg version="1.0" xmlns="http://www.w3.org/2000/svg"
 width="512.000000pt" height="512.000000pt" viewBox="0 0 512.000000 512.000000"
 preserveAspectRatio="xMidYMid meet">

<g transform="translate(0.000000,512.000000) scale(0.100000,-0.100000)"
fill="#000000" stroke="none">
<path d="M4128 4545 c-40 -22 -291 -466 -333 -590 -79 -228 -44 -424 90 -513
41 -27 56 -33 84 -28 47 7 92 54 100 103 l7 38 27 -40 c52 -76 90 -241 62
-269 -37 -37 -239 -48 -354 -20 -85 21 -228 88 -322 151 -41 27 -85 52 -98 56
-38 10 -79 -3 -110 -35 -80 -82 -32 -166 160 -279 173 -101 343 -150 522 -150
64 -1 117 -2 117 -4 0 -1 -13 -34 -29 -71 -16 -38 -36 -86 -45 -107 l-15 -37
-46 32 c-38 27 -57 33 -114 36 -125 7 -167 -30 -265 -233 -380 -791 -846
-1252 -1543 -1525 -70 -28 -145 -62 -165 -75 -53 -35 -88 -85 -88 -127 l0 -36
-57 -8 c-32 -4 -220 -7 -418 -5 -293 1 -362 4 -374 15 -7 8 -11 20 -9 28 3 7
67 51 141 97 241 149 602 435 662 523 14 20 34 39 45 43 20 6 231 222 258 265
9 14 55 74 102 134 249 318 476 693 600 993 18 43 41 88 50 101 10 12 53 128
95 256 47 145 91 258 113 296 91 154 286 270 455 270 110 0 175 84 132 173
-25 54 -71 71 -164 63 -294 -25 -537 -189 -669 -452 -17 -34 -48 -118 -68
-185 -70 -238 -153 -443 -274 -676 -338 -653 -871 -1232 -1480 -1608 -69 -43
-140 -92 -158 -109 -134 -125 -96 -361 71 -439 51 -25 59 -25 372 -31 549 -10
839 25 1200 145 694 231 1223 745 1653 1604 138 277 329 730 351 833 55 260
-68 549 -306 719 -35 25 -63 47 -63 49 0 11 66 133 164 303 91 158 106 191
106 229 0 37 -6 50 -34 78 -27 27 -42 34 -72 34 -22 -1 -51 -7 -66 -15z"/>
</g>
</svg>
