<svg width="112" height="52" viewBox="0 0 112 52" fill="none" xmlns="http://www.w3.org/2000/svg">
<mask id="mask0_371_21" style="mask-type:alpha" maskUnits="userSpaceOnUse" x="0" y="0" width="112" height="52">
<rect width="112" height="52" fill="#D9D9D9"/>
</mask>
<g mask="url(#mask0_371_21)">
<mask id="path-2-inside-1_371_21" fill="white">
<path fill-rule="evenodd" clip-rule="evenodd" d="M56 37C68.3552 37 79.2151 30.5981 85.4437 20.9306C91.426 11.6452 99.9543 2 111 2H118C129.046 2 138 10.9543 138 22V30C138 41.0457 129.046 50 118 50H-5C-16.0457 50 -25 41.0457 -25 30V22C-25 10.9543 -16.0457 2 -5 2H0.999999C12.0457 2 20.574 11.6452 26.5563 20.9306C32.7849 30.5981 43.6448 37 56 37Z"/>
</mask>
<path fill-rule="evenodd" clip-rule="evenodd" d="M56 37C68.3552 37 79.2151 30.5981 85.4437 20.9306C91.426 11.6452 99.9543 2 111 2H118C129.046 2 138 10.9543 138 22V30C138 41.0457 129.046 50 118 50H-5C-16.0457 50 -25 41.0457 -25 30V22C-25 10.9543 -16.0457 2 -5 2H0.999999C12.0457 2 20.574 11.6452 26.5563 20.9306C32.7849 30.5981 43.6448 37 56 37Z" fill="#F3F3F3"/>
<path d="M85.4437 20.9306L84.3508 20.2265L85.4437 20.9306ZM84.3508 20.2265C78.3515 29.5383 67.8949 35.7 56 35.7V38.3C68.8154 38.3 80.0788 31.658 86.5365 21.6347L84.3508 20.2265ZM111 3.3H118V0.7H111V3.3ZM136.7 22V30H139.3V22H136.7ZM118 48.7H-5V51.3H118V48.7ZM-23.7 30V22H-26.3V30H-23.7ZM-5 3.3H0.999999V0.7H-5V3.3ZM56 35.7C44.1051 35.7 33.6485 29.5383 27.6492 20.2265L25.4635 21.6347C31.9212 31.658 43.1846 38.3 56 38.3V35.7ZM0.999999 3.3C6.12157 3.3 10.7294 5.53184 14.8417 8.97948C18.9601 12.4322 22.5053 17.0432 25.4635 21.6347L27.6492 20.2265C24.625 15.5326 20.9149 10.6783 16.5121 6.98706C12.1033 3.29076 6.92412 0.7 0.999999 0.7V3.3ZM-5 48.7C-15.3277 48.7 -23.7 40.3277 -23.7 30H-26.3C-26.3 41.7637 -16.7637 51.3 -5 51.3V48.7ZM136.7 30C136.7 40.3277 128.328 48.7 118 48.7V51.3C129.764 51.3 139.3 41.7637 139.3 30H136.7ZM118 3.3C128.328 3.3 136.7 11.6723 136.7 22H139.3C139.3 10.2363 129.764 0.7 118 0.7V3.3ZM-23.7 22C-23.7 11.6723 -15.3277 3.3 -5 3.3V0.7C-16.7637 0.7 -26.3 10.2363 -26.3 22H-23.7ZM86.5365 21.6347C89.4947 17.0432 93.0399 12.4322 97.1583 8.97948C101.271 5.53184 105.878 3.3 111 3.3V0.7C105.076 0.7 99.8967 3.29076 95.4879 6.98706C91.0851 10.6783 87.375 15.5326 84.3508 20.2265L86.5365 21.6347Z" fill="#6D767E" mask="url(#path-2-inside-1_371_21)"/>
</g>
</svg>
