<svg width="192" height="286" viewBox="0 0 192 286" fill="none" xmlns="http://www.w3.org/2000/svg">
<path d="M45.6623 222.43C45.2893 223.382 45.2808 223.371 49.0479 228.278C52.2818 232.491 52.4875 232.736 52.951 232.906C54.2329 233.411 55.3925 232.433 55.1464 231.063C55.0814 230.727 54.4119 229.786 51.6521 226.191C48.232 221.736 48.232 221.736 47.6906 221.556C46.7416 221.233 45.9945 221.561 45.6623 222.43Z" fill="#8BBA66"/>
<path d="M43.4561 230.24C43.2081 230.693 43.2023 231.416 43.452 231.856C43.5797 232.091 44.8872 233.383 46.354 234.746C48.6185 236.828 49.1012 237.228 49.48 237.288C50.0623 237.384 50.7796 237.132 51.1309 236.722C51.4932 236.303 51.5585 235.429 51.2775 234.927C51.1498 234.692 49.8423 233.399 48.3561 232.034C45.8104 229.677 45.6588 229.548 45.113 229.476C44.4893 229.394 43.7286 229.751 43.4561 230.24Z" fill="#8BBA66"/>
<path d="M53.9798 222.512C53.7367 223.154 53.8856 223.53 55.3437 225.864C57.688 229.602 57.9231 230.228 57.6071 231.802C57.3788 233.012 56.867 233.738 55.3604 235.017C51.5846 238.249 49.7862 241.522 49.9329 244.932C49.9883 246.397 50.2747 247.386 51.0505 248.876C51.576 249.857 51.9713 250.395 54.2233 253.1C62.5804 263.142 71.0859 270.545 82.4666 277.722C84.1134 278.771 85.8187 278.846 87.63 277.964C89.527 277.034 90.8612 275.256 91.0214 273.433C91.1233 272.355 91.141 272.447 90.1929 269.477C86.3014 257.217 80.331 245.536 73.0466 235.933C71.2121 233.521 70.9954 233.284 70.1374 232.646C68.8897 231.728 67.7273 231.219 66.3094 230.993C64.9026 230.758 63.4548 230.836 62.1025 231.243C61.5565 231.399 61.0715 231.544 61.0325 231.539C61.002 231.545 60.9879 231.275 60.9983 230.969C61.0467 230.073 60.7251 228.673 60.2751 227.721C60.05 227.245 59.1683 225.732 58.3076 224.359C56.9087 222.103 56.6996 221.808 56.2828 221.585C55.4627 221.11 54.3418 221.568 53.9798 222.512ZM61.0985 235.186C63.6731 233.928 65.9049 233.845 67.6271 234.924C68.2768 235.336 69.5725 236.567 69.0464 236.27C68.5652 236.009 67.843 236.072 67.3798 236.428C67.1483 236.606 66.7003 237.072 66.36 237.474C65.3315 238.737 63.8188 240.213 62.1052 241.634C60.2017 243.218 59.9081 243.566 59.8692 244.314C59.8335 245.341 60.8762 246.083 61.9436 245.807C62.426 245.682 62.7458 245.436 64.814 243.656C67.4412 241.393 67.5574 241.339 68.7259 241.651C69.2725 241.793 69.4071 241.899 69.9294 242.603C70.6126 243.515 70.8448 244.389 70.6052 245.081C70.5108 245.346 70.061 245.902 69.4892 246.481C68.3837 247.575 68.2173 247.86 68.3031 248.566C68.3601 249.188 68.6031 249.527 69.1876 249.832C69.7917 250.139 70.1579 250.069 71.1714 249.448C72.6573 248.553 73.6717 248.756 74.5129 250.125C76.2292 252.909 78.8915 258.226 80.7021 262.479C82.2616 266.154 82.3894 266.389 82.9765 266.675C83.8262 267.074 84.949 266.527 85.1143 265.647C85.1594 265.454 85.2053 265.332 85.2476 265.387C85.4677 265.673 87.4784 271.648 87.7241 272.722C87.7739 272.946 87.7142 273.325 87.5919 273.577C87.287 274.161 86.1402 275.042 85.4883 275.174C84.9058 275.306 84.6652 275.175 81.6318 273.21C74.7019 268.681 67.862 263.013 62.3386 257.211C61.3174 256.154 60.0795 254.861 59.5841 254.33C59.0778 253.808 57.5217 251.918 56.1392 250.14L53.6198 246.904L53.403 245.914C52.9042 243.597 53.6174 241.49 55.6988 239.156C56.5474 238.207 59.796 235.818 61.0985 235.186Z" fill="#8BBA66"/>
<path d="M73.512 260.533C73.2097 261.098 73.2778 261.712 73.701 262.263C74.1523 262.828 74.7022 263.019 75.3592 262.848C76.3461 262.581 76.8853 261.571 76.5243 260.622C76.0288 259.337 74.1819 259.283 73.512 260.533Z" fill="#8BBA66"/>
<path d="M156.296 33.9988C155.856 34.2666 154.414 35.2283 153.094 36.1499C144.59 42.111 138.552 48.0658 132.912 56.0597C131.244 58.4368 129.58 61.1281 129.036 62.3511C128.194 64.244 127.794 66.6562 127.937 69.0273C128.259 74.3524 129.155 78.645 130.987 83.7941C132.01 86.6407 132.455 87.2907 133.957 88.2063C135.8 89.2963 136.351 89.2928 142.197 88.0019C147.267 86.8824 147.402 86.8395 147.667 86.0194C147.736 85.7942 147.761 85.434 147.714 85.2212C147.178 82.7925 148.595 80.1689 150.95 79.2418C153.677 78.1539 157.046 79.8522 157.654 82.6064C157.836 83.4327 158.182 83.8684 158.792 84.075C159.233 84.2272 159.574 84.1651 172.644 81.2792C187.241 78.056 186.931 78.1376 188.097 77.1185C188.78 76.5215 189.511 75.3752 189.766 74.505C190.182 73.0608 190.158 72.8952 188.094 63.5434C186.045 54.2667 185.757 53.2011 184.695 51.1249C182.928 47.6418 179.299 43.3358 175.594 40.2937C171.269 36.7585 163.692 33.1271 160.339 32.9877C159.187 32.9403 157.27 33.416 156.296 33.9988ZM161.456 36.1417C162.015 36.2941 163.091 36.6473 163.836 36.9292C171.177 39.7329 177.197 44.6401 181.303 51.1648C182.823 53.5865 182.769 53.4015 185.016 63.5796C186.617 70.8282 187.005 72.7644 186.962 73.1677C186.868 73.8712 186.489 74.5326 185.949 74.9407C185.523 75.2711 184.862 75.4301 172.919 78.0672L160.337 80.8454L159.86 79.9923C158.567 77.7044 156.107 76.1338 153.466 75.8897C152.113 75.7683 149.863 76.2784 148.712 76.9526C146.425 78.311 144.757 81.0426 144.663 83.5317L144.649 84.2436L140.568 85.1448L136.5 86.0432L135.878 85.7865C134.91 85.3833 134.552 84.8321 133.74 82.5824C132.273 78.4949 131.432 74.8072 131.079 70.8282C130.922 69.169 130.916 68.9604 130.919 67.6074L130.921 66.7271L149.7 62.5807L168.479 58.4343L168.82 57.8993C169.142 57.395 169.151 57.3143 168.971 56.737C168.816 56.2723 168.66 56.0441 168.357 55.8615L167.957 55.5953L149.891 59.5188L131.812 63.4451L132.645 61.9875C134.225 59.2098 137.384 54.849 140.11 51.6737C144.556 46.4775 149.107 42.5316 156.69 37.2728C158.104 36.3041 158.127 36.286 159.274 36.072C160.337 35.8899 160.533 35.886 161.456 36.1417Z" fill="#8BBA66"/>
<path d="M153.108 44.3002C152.7 44.6529 152.535 45.4509 152.772 45.9894C153.07 46.6851 153.667 46.9473 154.776 46.8598C156.406 46.7494 157.639 47.1599 157.683 47.833C157.721 48.2447 156.993 49.0488 156.17 49.5456C155.646 49.8452 155.146 50.0212 154.104 50.2381C152.461 50.5877 151.552 50.5127 150.529 49.9245C149.761 49.4771 149.233 49.4625 148.662 49.8511C147.948 50.3633 147.889 51.4659 148.539 52.1496C148.932 52.5617 149.938 53.0748 150.745 53.2776C152.4 53.6998 154.934 53.4028 156.784 52.5612C157.952 52.0274 159.378 50.8724 159.962 50.0082C161.209 48.1048 160.788 45.9001 158.954 44.7295C157.364 43.715 154.055 43.4741 153.108 44.3002Z" fill="#8BBA66"/>
<path d="M173.09 60.4095C170.588 61.9205 169.495 64.3414 170.097 67.0706C170.493 68.8609 171.434 70.1498 173.014 71.0614C174.504 71.927 175.944 72.0819 177.727 71.5962C178.73 71.3222 179.001 71.1835 179.742 70.613C181.77 69.036 182.583 66.5326 181.87 64.0773C181.705 63.5097 181.404 62.8014 181.153 62.4368C180.24 61.0366 178.559 59.9636 176.889 59.7152C175.802 59.5482 173.96 59.8892 173.09 60.4095ZM176.764 62.7757C178.466 63.2272 179.46 64.9376 178.988 66.6043C178.407 68.6101 176.131 69.4803 174.386 68.3558C172.921 67.4318 172.54 65.7042 173.452 64.1897C174.161 62.9961 175.457 62.4472 176.764 62.7757Z" fill="#8BBA66"/>
<path d="M26.2002 8.99776C25.7808 9.32733 24.7435 11.4234 24.4004 12.6511C24.2167 13.2688 24.0471 14.1492 24.0163 14.6128C23.9827 15.1975 23.9087 15.4341 23.7594 15.4266C23.6506 15.4201 23.1344 15.3921 22.606 15.3679C21.2835 15.2811 19.9593 15.4486 18.6052 15.8657C17.251 16.2829 16.7706 16.6313 16.5935 17.3137C16.4744 17.7511 16.5102 17.9538 17.0241 19.4918C17.6582 21.4203 17.8545 21.6671 18.7611 21.7484C19.4463 21.8045 19.9952 21.4617 20.2728 20.8019C20.4603 20.3701 20.4471 20.2406 20.1822 19.4673L19.891 18.6086L20.4878 18.4648C21.5108 18.2298 23.035 18.3213 24.3669 18.6991C25.39 18.985 25.6959 19.0243 26.1351 18.889C26.8549 18.6672 27.3173 17.8703 27.1144 17.2115C26.7949 16.1745 27.0887 13.5728 27.629 12.5515L27.84 12.1525L28.4173 12.509C29.2415 13.0164 30.2499 14.1217 30.8162 15.136C31.4247 16.2442 31.8425 16.6899 32.3409 16.7902C33.0045 16.9063 33.3648 16.6884 34.3011 15.652C35.2956 14.5442 36.2123 13.8343 37.2117 13.3929L37.8686 13.097L37.9775 13.4508C38.2961 14.5281 38.1646 16.9195 37.7742 17.0398C37.457 17.1375 37.064 17.7261 36.9712 18.2489C36.8785 18.7717 37.1443 19.331 37.6531 19.6818C38.114 20.0073 38.3965 20.0138 39.8849 19.7289C43.1255 19.1046 46.6855 19.5173 49.6752 20.8537C50.7302 21.3301 51.0936 21.6856 51.9847 23.1476C54.1136 26.6326 55.3976 32.2746 55.0857 36.7252C54.9437 38.8661 54.5079 40.4429 53.6159 42.187C52.0609 45.204 49.5548 47.2584 45.5872 48.7746C44.0801 49.3457 43.2429 49.4032 41.3854 49.0538C39.5843 48.7137 39.3891 48.7739 37.9949 50.2319C35.6907 52.6382 34.5356 53.3547 31.3431 54.3515C29.135 55.0318 28.9351 55.1201 28.5382 55.5229C28.3027 55.7557 28.0691 56.0815 28.0129 56.2457C27.9173 56.5423 27.9051 56.5461 26.7206 56.4301C23.2235 56.0916 19.7992 54.5151 17.2024 52.0692C14.0995 49.1514 12.1618 44.726 12.1453 40.5101C12.1326 39.1248 12.4997 36.6742 12.9459 35.1743C13.0781 34.6928 13.5761 33.5776 14.0488 32.684C15.45 30.0349 17.3883 27.9151 19.8345 26.36C21.0844 25.5609 24.244 24.4138 25.7916 24.1909C28.4531 23.8117 32.2457 23.7654 34.1482 24.0876C34.6147 24.1709 35.0755 24.1492 35.4415 24.0364C35.9173 23.8899 36.0449 23.7838 36.2897 23.321C36.5345 22.8582 36.5504 22.693 36.4038 22.2172C36.1295 21.3267 35.8103 21.1578 33.9228 20.8844C32.148 20.6298 31.7406 20.6083 29.1372 20.7425C25.523 20.9343 25.4094 20.9559 23.0145 21.6803C21.2906 22.198 20.5005 22.4949 19.7198 22.9091C15.8809 24.9733 13.148 27.7654 11.2356 31.5737C10.0464 33.9571 9.43889 35.9742 9.20418 38.4642C8.82071 42.3358 9.68555 46.3571 11.6295 49.8055C14.9511 55.688 21.0688 59.3734 27.8601 59.5654C31.3383 59.6693 34.3508 58.955 37.6482 57.2579C39.5934 56.2445 42.8995 55.226 45.09 54.9653C48.05 54.6011 50.2994 53.8814 52.6969 52.515C59.468 48.6525 63.2815 40.9993 62.3055 33.192C62.0665 31.2887 61.1438 28.3805 60.2648 26.7412C56.6247 19.955 49.5083 15.9762 41.7186 16.359L41.1649 16.3826L41.2163 15.7256C41.3443 14.0165 40.6355 10.9355 39.9492 10.2253C39.4328 9.67644 38.8444 9.63066 37.4658 10.0554C36.0385 10.4951 35.0297 10.9928 34.0398 11.7252C32.7825 12.6736 32.912 12.6604 32.2078 11.8488C31.3309 10.8233 30.0851 9.85799 28.8198 9.21928C27.4108 8.50461 26.8627 8.45975 26.2002 8.99776Z" fill="#8BBA66"/>
<path d="M95.0743 126.732C89.3863 130.02 84.262 135.755 80.5943 142.959C78.5802 146.884 75.9525 154.704 75.5898 157.851C75.5257 158.361 75.5263 159.324 75.5896 159.979L75.7081 161.167L78.2746 166.84C81.0919 173.067 81.2519 173.352 82.7229 174.612C84.4325 176.091 86.4548 176.853 88.7151 176.871C91.0572 176.899 93.0132 176.107 95.2064 174.261C97.2695 172.504 97.8346 172.14 100.026 171.148C103.791 169.445 105.92 169.243 112.606 169.945C115.432 170.251 116.445 170.259 118.347 170.035C120.427 169.793 121.593 169.452 123.869 168.406C126.177 167.362 127.366 166.591 129.002 165.059C133.804 160.603 136.005 153.83 134.708 147.427C134.347 145.634 133.754 144.116 131.108 138.2C128.782 133.024 128.313 132.056 127.699 131.215C123.788 125.762 117.647 122.624 110.591 122.477C105.623 122.379 99.8691 123.942 95.0743 126.732ZM102.651 127.172C111.476 124.297 119.976 126.571 124.752 133.077C125.426 133.983 125.773 134.68 127.354 138.174L129.179 142.21L129.109 143.359C128.729 149.899 124.303 155.909 118.131 158.298C114.813 159.581 113.143 159.7 107.168 159.126C101.256 158.555 98.3719 158.943 94.5167 160.858C92.612 161.798 91.5579 162.523 89.8466 164.027C87.9054 165.744 85.7435 166.459 83.5271 166.126C82.9863 166.029 82.2897 165.862 82.003 165.743L81.4612 165.507L80.2283 162.679L78.9896 159.838L79.0101 158.819C79.0788 156.396 81.7574 148.242 83.7832 144.343C88.426 135.347 94.4986 129.819 102.651 127.172Z" fill="#8BBA66"/>
<path d="M98.4027 132.029C93.5871 134.705 89.1998 139.563 86.0235 145.691C84.9624 147.739 82.7868 153.538 82.2043 155.821C81.4484 158.819 81.4281 159.015 81.814 160.005C82.2512 161.143 82.9447 161.714 84.0709 161.904C85.2979 162.11 85.851 161.89 87.3336 160.567C91.0015 157.277 95.7775 155.132 100.547 154.62C102.442 154.415 103.911 154.434 107.483 154.744C111.655 155.108 112.763 155.119 114.263 154.829C120.407 153.649 124.782 148.455 124.833 142.25C124.865 140.123 124.646 139.228 123.595 136.939C122.497 134.547 121.816 133.659 119.963 132.137C115.439 128.422 109.143 127.791 102.167 130.326C100.26 131.018 100.066 131.106 98.4027 132.029ZM112.134 137.217C113.133 137.262 114.349 137.752 115.165 138.423C115.717 138.888 115.903 139.161 116.33 140.071C116.779 141.064 116.828 141.275 116.791 142.223C116.75 143.437 116.365 144.404 115.548 145.379C115.077 145.918 114.817 146.098 113.889 146.518C112.542 147.112 111.736 147.15 110.38 146.693C108.93 146.199 108.08 145.419 107.451 143.995C106.018 140.76 108.581 137.053 112.134 137.217Z" fill="#8BBA66"/>
</svg>
