<?xml version="1.0" standalone="no"?>
<!DOCTYPE svg PUBLIC "-//W3C//DTD SVG 20010904//EN"
 "http://www.w3.org/TR/2001/REC-SVG-20010904/DTD/svg10.dtd">
<svg version="1.0" xmlns="http://www.w3.org/2000/svg"
 width="162.000000pt" height="166.000000pt" viewBox="0 0 162.000000 166.000000"
 preserveAspectRatio="xMidYMid meet">

<g transform="translate(0.000000,166.000000) scale(0.100000,-0.100000)"
fill="#000000" stroke="none">
<path d="M1020 1427 c-50 -40 -133 -182 -145 -250 -4 -21 -10 -39 -14 -42 -4
-2 -36 23 -71 56 -105 100 -259 191 -373 221 -45 12 -50 11 -63 -7 -19 -26
-18 -150 2 -256 18 -96 52 -187 100 -270 19 -32 34 -59 34 -62 0 -2 -57 -7
-127 -10 -144 -6 -195 -18 -230 -53 -29 -30 -25 -54 21 -102 41 -44 205 -154
281 -188 33 -15 62 -28 64 -30 2 -2 -12 -27 -32 -56 -46 -71 -80 -151 -81
-196 l-1 -37 50 -3 c102 -7 295 40 369 89 l41 28 12 -41 c7 -23 17 -46 23 -52
15 -15 135 113 150 159 l12 36 48 -45 c55 -51 101 -77 185 -101 33 -9 66 -22
73 -28 19 -15 33 4 35 44 l2 34 -55 6 c-98 10 -184 55 -230 119 l-19 27 69 5
c78 6 177 48 219 92 28 30 23 40 -33 61 l-45 17 60 55 c32 30 73 76 90 100 41
62 95 171 104 210 6 30 4 34 -22 44 -35 14 -177 4 -236 -16 -60 -21 -65 -19
-72 23 -18 118 -29 165 -51 236 -51 160 -98 220 -144 183z"/>
</g>
</svg>
