<?xml version="1.0" standalone="no"?>
<!DOCTYPE svg PUBLIC "-//W3C//DTD SVG 20010904//EN"
 "http://www.w3.org/TR/2001/REC-SVG-20010904/DTD/svg10.dtd">
<svg version="1.0" xmlns="http://www.w3.org/2000/svg"
 width="512.000000pt" height="512.000000pt" viewBox="0 0 512.000000 512.000000"
 preserveAspectRatio="xMidYMid meet">

<g transform="translate(0.000000,512.000000) scale(0.100000,-0.100000)"
fill="#000000" stroke="none">
<path d="M1545 4399 c-452 -59 -861 -461 -1054 -1037 -326 -973 -21 -2151 674
-2607 200 -131 359 -180 585 -179 180 1 297 31 475 122 76 39 87 42 210 51
114 9 148 16 280 61 83 27 153 50 156 50 4 0 10 -20 13 -44 18 -118 162 -147
326 -65 44 22 122 78 190 134 425 356 724 872 826 1426 32 178 42 326 33 515
-8 170 -15 214 -66 399 -60 220 -154 379 -316 531 -174 164 -378 244 -622 244
-182 0 -349 -42 -529 -132 -64 -32 -81 -37 -91 -26 -6 7 -54 64 -106 127 -135
163 -262 262 -438 341 -171 77 -379 111 -546 89z m275 -203 c212 -45 429 -188
583 -384 l47 -60 -34 -12 c-48 -16 -83 -45 -105 -88 -16 -32 -19 -71 -24 -312
-4 -218 -10 -300 -26 -395 -82 -460 -227 -821 -453 -1128 -135 -182 -268 -311
-454 -437 -120 -82 -157 -128 -175 -222 -6 -32 -15 -58 -19 -58 -5 0 -46 41
-93 90 -243 258 -404 621 -467 1051 -95 650 81 1318 445 1685 137 138 285 227
439 265 87 22 247 24 336 5z m1606 -391 c275 -64 492 -297 588 -629 14 -48 26
-92 26 -97 0 -5 -21 -9 -46 -9 -57 0 -108 -23 -138 -64 -13 -17 -49 -92 -81
-166 -31 -74 -74 -162 -94 -195 -20 -33 -41 -72 -48 -88 -18 -41 -165 -244
-254 -351 -129 -154 -389 -391 -389 -354 0 7 4 29 10 48 5 19 19 98 30 174 26
180 29 537 4 725 -18 141 -76 382 -124 511 -55 148 -59 157 -107 257 -26 54
-49 101 -51 105 -8 18 210 108 323 133 82 18 275 18 351 0z"/>
</g>
</svg>
