<?xml version="1.0" standalone="no"?>
<!DOCTYPE svg PUBLIC "-//W3C//DTD SVG 20010904//EN"
 "http://www.w3.org/TR/2001/REC-SVG-20010904/DTD/svg10.dtd">
<svg version="1.0" xmlns="http://www.w3.org/2000/svg"
 width="512.000000pt" height="512.000000pt" viewBox="0 0 512.000000 512.000000"
 preserveAspectRatio="xMidYMid meet">

<g transform="translate(0.000000,512.000000) scale(0.100000,-0.100000)"
fill="#000000" stroke="none">
<path d="M2103 4344 c-38 -19 -63 -67 -63 -122 0 -22 -8 -67 -19 -101 -44
-143 -115 -214 -290 -290 -236 -104 -411 -222 -587 -396 -67 -66 -149 -157
-182 -203 -477 -649 -417 -1489 146 -2074 156 -162 322 -282 539 -389 134 -66
187 -76 235 -45 57 37 71 120 30 173 -9 13 -75 51 -147 87 -215 105 -392 235
-516 377 -180 206 -297 437 -345 686 -26 130 -23 357 5 490 77 368 306 697
636 917 91 60 169 102 340 182 108 51 128 64 200 138 93 93 145 183 175 302
37 143 21 237 -45 268 -41 20 -71 20 -112 0z"/>
<path d="M2903 4344 c-50 -25 -67 -72 -60 -168 11 -167 100 -337 237 -449 25
-21 135 -82 245 -137 119 -59 238 -127 294 -167 114 -82 257 -220 334 -324 53
-70 147 -224 147 -240 0 -4 -11 -9 -23 -13 -13 -3 -36 -15 -51 -27 -48 -38
-59 -73 -67 -224 -20 -335 -154 -633 -360 -796 -73 -58 -162 -59 -229 -3 -42
36 -52 57 -60 137 -9 82 -31 116 -86 136 -36 12 -44 12 -77 -4 -21 -10 -45
-31 -53 -47 -9 -17 -22 -91 -30 -165 -15 -146 -31 -192 -75 -224 -48 -34 -85
-42 -166 -34 l-75 7 6 59 c55 488 61 1687 9 1797 -29 62 -123 83 -178 40 -50
-39 -55 -68 -43 -239 15 -211 14 -941 -1 -1179 -33 -524 -93 -952 -182 -1292
-7 -28 -18 -41 -44 -53 -18 -9 -60 -40 -92 -70 -56 -51 -58 -54 -58 -104 0
-44 4 -55 33 -83 27 -28 40 -33 80 -33 40 0 55 6 99 42 63 50 110 67 183 67
73 0 120 -17 183 -67 44 -36 59 -42 99 -42 64 0 108 41 115 108 l5 45 97 22
c580 134 1079 539 1296 1051 350 829 -65 1767 -955 2155 -58 25 -127 61 -153
80 -90 66 -152 178 -164 298 -7 81 -27 121 -68 140 -41 20 -71 20 -112 0z"/>
<path d="M2164 3470 c-174 -47 -343 -122 -484 -215 -81 -53 -295 -258 -329
-315 -11 -19 -21 -48 -21 -65 0 -70 73 -132 140 -118 24 4 50 27 104 90 162
193 380 326 646 397 76 20 100 31 122 55 50 55 30 149 -37 177 -43 18 -54 17
-141 -6z"/>
<path d="M2205 2976 c-91 -30 -177 -71 -200 -96 -9 -10 -20 -39 -22 -63 -5
-40 -2 -49 28 -81 50 -55 91 -57 199 -13 47 19 102 40 123 47 95 30 104 171
13 214 -44 21 -56 20 -141 -8z"/>
<path d="M1740 2632 c-42 -20 -91 -110 -116 -212 -24 -94 -15 -252 18 -342 84
-225 282 -402 552 -494 100 -34 140 -32 182 10 29 29 34 41 34 79 0 65 -32 99
-118 128 -192 63 -334 175 -405 318 -30 61 -32 73 -32 166 0 88 3 107 28 159
15 32 27 72 27 88 0 41 -25 85 -60 103 -38 20 -67 19 -110 -3z"/>
<path d="M1193 2384 c-52 -26 -67 -71 -59 -180 14 -197 100 -425 223 -589 120
-160 301 -309 492 -405 105 -52 304 -120 354 -120 67 0 111 37 118 100 8 76
-27 110 -156 149 -452 137 -759 476 -794 873 -10 119 -19 141 -64 168 -38 24
-71 25 -114 4z"/>
<path d="M2180 2393 c-83 -27 -112 -98 -74 -179 32 -68 171 -164 236 -164 64
0 118 54 118 117 0 43 -34 88 -88 118 -27 15 -60 40 -72 57 -12 16 -37 36 -56
44 -35 15 -40 15 -64 7z"/>
</g>
</svg>
