<?xml version="1.0" standalone="no"?>
<!DOCTYPE svg PUBLIC "-//W3C//DTD SVG 20010904//EN"
 "http://www.w3.org/TR/2001/REC-SVG-20010904/DTD/svg10.dtd">
<svg version="1.0" xmlns="http://www.w3.org/2000/svg"
 width="512.000000pt" height="512.000000pt" viewBox="0 0 512.000000 512.000000"
 preserveAspectRatio="xMidYMid meet">

<g transform="translate(0.000000,512.000000) scale(0.100000,-0.100000)"
fill="#000000" stroke="none">
<path d="M2159 4657 c-19 -12 -39 -39 -47 -59 -14 -36 -12 -46 43 -230 32
-106 64 -203 72 -214 32 -50 132 -57 179 -13 13 12 27 37 30 56 l6 33 114 0
c96 0 114 -2 114 -15 0 -29 30 -75 60 -90 51 -26 124 -14 158 28 18 21 122
369 122 406 0 18 -7 45 -15 61 -30 59 -39 60 -438 60 -362 0 -364 0 -398 -23z"/>
<path d="M2008 4052 c-37 -22 -61 -75 -54 -116 13 -68 66 -106 147 -106 l42 0
-7 -152 c-3 -84 -11 -337 -17 -563 -8 -281 -15 -414 -23 -422 -6 -6 -57 -35
-113 -63 -363 -181 -618 -524 -688 -927 -19 -111 -19 -324 1 -437 40 -231 135
-432 290 -616 79 -94 146 -145 232 -179 l67 -26 620 -3 c687 -4 743 0 844 49
165 81 371 374 446 634 94 325 61 653 -96 955 -125 240 -335 442 -584 562 -47
22 -90 48 -94 57 -5 9 -14 198 -20 421 -6 223 -14 474 -17 558 l-7 152 42 0
c110 0 178 85 137 172 -34 70 -14 68 -598 68 -475 -1 -526 -2 -550 -18z m592
-776 c0 -304 3 -568 6 -586 5 -24 45 -70 158 -184 84 -83 175 -185 203 -226
131 -193 193 -380 210 -631 l6 -99 -831 0 -831 0 6 53 c11 102 53 242 103 342
111 225 264 371 517 496 77 37 111 61 138 93 69 85 66 62 86 706 10 322 18
586 18 588 1 1 48 2 106 2 l105 0 0 -554z"/>
</g>
</svg>
