<?xml version="1.0" standalone="no"?>
<!DOCTYPE svg PUBLIC "-//W3C//DTD SVG 20010904//EN"
 "http://www.w3.org/TR/2001/REC-SVG-20010904/DTD/svg10.dtd">
<svg version="1.0" xmlns="http://www.w3.org/2000/svg"
 width="512.000000pt" height="512.000000pt" viewBox="0 0 512.000000 512.000000"
 preserveAspectRatio="xMidYMid meet">

<g transform="translate(0.000000,512.000000) scale(0.100000,-0.100000)"
fill="#000000" stroke="none">
<path d="M2400 3274 c-184 -17 -386 -54 -423 -79 -39 -25 -59 -92 -41 -139 3
-9 81 -83 173 -165 385 -344 601 -599 756 -893 31 -60 68 -117 82 -128 51 -40
138 -18 167 44 24 51 21 67 -35 178 -141 282 -355 550 -677 851 -51 48 -87 87
-80 87 7 1 60 5 118 10 106 9 351 -2 447 -19 44 -8 56 -18 146 -113 287 -303
440 -533 568 -857 61 -154 81 -175 158 -168 50 5 86 36 100 84 12 42 -35 178
-127 368 -83 169 -160 295 -265 433 -88 117 -86 119 53 45 552 -294 921 -795
920 -1251 -1 -467 -380 -741 -1163 -842 -438 -56 -1117 -52 -1513 10 -643 99
-990 319 -1070 676 -13 61 -15 104 -11 198 12 232 92 438 258 659 72 96 298
327 320 327 19 0 145 -69 235 -128 197 -130 381 -311 576 -569 85 -113 105
-134 137 -144 79 -24 151 30 151 113 0 44 -46 115 -185 288 -224 278 -469 484
-740 622 -181 92 -203 92 -316 3 -547 -432 -798 -1057 -620 -1545 150 -409
608 -661 1367 -750 354 -41 818 -49 1194 -19 874 68 1399 327 1561 769 182
499 -86 1144 -658 1582 -293 225 -679 384 -1073 443 -104 15 -403 27 -490 19z"/>
</g>
</svg>
