<?xml version="1.0" standalone="no"?>
<!DOCTYPE svg PUBLIC "-//W3C//DTD SVG 20010904//EN"
 "http://www.w3.org/TR/2001/REC-SVG-20010904/DTD/svg10.dtd">
<svg version="1.0" xmlns="http://www.w3.org/2000/svg"
 width="512.000000pt" height="512.000000pt" viewBox="0 0 512.000000 512.000000"
 preserveAspectRatio="xMidYMid meet">

<g transform="translate(0.000000,512.000000) scale(0.100000,-0.100000)"
fill="#000000" stroke="none">
<path d="M2425 4835 c-241 -52 -436 -228 -512 -460 -20 -64 -26 -104 -29 -200
l-3 -120 -61 -7 c-34 -4 -90 -16 -125 -28 -184 -61 -352 -252 -388 -438 -9
-50 -15 -62 -30 -62 -49 0 -107 -65 -107 -120 0 -61 58 -120 117 -120 l29 0
178 -787 c98 -434 181 -794 183 -800 3 -7 -2 -13 -11 -13 -30 0 -75 -30 -91
-60 -13 -25 -15 -92 -15 -442 0 -465 3 -488 70 -617 82 -157 245 -279 414
-310 94 -17 963 -14 1047 3 172 37 321 154 406 320 59 116 63 153 63 611 0
384 -1 412 -19 441 -10 17 -33 36 -50 44 -17 7 -31 17 -31 22 0 5 75 269 166
586 92 317 169 585 171 594 3 11 20 20 42 24 51 9 69 21 91 57 41 67 10 150
-66 176 -37 13 -41 18 -52 65 -16 69 -73 181 -121 239 -111 133 -277 217 -429
217 l-54 0 6 83 c34 458 31 542 -26 691 l-31 79 27 20 c59 43 74 124 31 175
-49 59 -117 65 -185 18 l-34 -23 -58 39 c-147 100 -344 140 -513 103z m149
-285 c65 -68 121 -176 137 -266 13 -68 -26 -2271 -40 -2337 -16 -70 -61 -144
-123 -206 l-62 -61 -107 0 -107 0 -6 62 c-12 126 -136 2345 -136 2426 0 86 16
172 31 172 5 0 8 3 7 8 -4 13 13 52 23 52 5 0 9 7 9 15 0 8 5 15 10 15 6 0 10
5 10 12 0 16 71 88 87 88 7 0 13 5 13 10 0 6 7 10 15 10 8 0 15 5 15 11 0 5 5
7 10 4 6 -3 10 -1 10 6 0 7 3 9 7 6 3 -4 12 -2 19 4 16 13 62 27 95 28 19 1
41 -14 83 -59z m-829 -1000 c14 -118 35 -252 46 -298 11 -46 20 -113 20 -150
0 -55 40 -389 165 -1374 6 -48 6 -48 -23 -48 l-29 0 -122 538 c-67 295 -124
548 -126 562 -3 14 -24 104 -46 200 -23 96 -43 186 -46 200 -2 14 -16 77 -30
140 -19 85 -24 129 -19 170 6 55 49 158 82 195 26 28 95 87 98 83 2 -2 15
-100 30 -218z m1742 -254 c19 -21 49 -67 65 -102 43 -91 42 -164 -4 -314 -20
-63 -105 -357 -189 -654 -135 -474 -166 -564 -183 -545 -2 2 16 209 40 459 24
250 44 463 44 473 0 13 9 17 41 17 89 0 148 61 134 137 -8 42 -54 93 -84 93
-25 0 -26 8 -6 34 21 28 19 99 -3 126 -18 22 -17 28 5 179 12 86 23 162 23
169 0 20 76 -26 117 -72z m-449 -2203 c-4 -323 -6 -352 -25 -404 -24 -64 -58
-122 -104 -174 l-32 -36 -389 1 c-402 1 -463 7 -502 45 -8 8 -19 15 -25 15 -6
0 -11 5 -11 10 0 6 -5 10 -12 10 -16 0 -58 41 -58 57 0 7 -4 13 -10 13 -5 0
-10 5 -10 11 0 6 -7 17 -15 25 -37 37 -43 102 -45 443 l-1 331 621 0 622 0 -4
-347z"/>
</g>
</svg>
