<?xml version="1.0" standalone="no"?>
<!DOCTYPE svg PUBLIC "-//W3C//DTD SVG 20010904//EN"
 "http://www.w3.org/TR/2001/REC-SVG-20010904/DTD/svg10.dtd">
<svg version="1.0" xmlns="http://www.w3.org/2000/svg"
 width="512.000000pt" height="512.000000pt" viewBox="0 0 512.000000 512.000000"
 preserveAspectRatio="xMidYMid meet">

<g transform="translate(50,450) scale(0.08,-0.08)"
fill="#000000" stroke="none">
<path d="M1295 4572 c-58 -36 -155 -154 -195 -237 -49 -103 -64 -169 -63 -280
0 -166 47 -284 168 -429 97 -115 119 -171 120 -291 0 -80 -4 -97 -31 -155 -17
-36 -47 -84 -67 -108 -20 -23 -39 -52 -42 -63 -12 -35 4 -84 36 -115 25 -24
39 -29 79 -29 42 0 54 5 85 35 140 135 206 371 161 574 -23 103 -82 216 -158
301 -34 39 -73 95 -87 125 -23 48 -26 68 -26 160 0 95 3 110 28 163 16 32 60
91 98 132 58 63 69 80 69 110 0 98 -95 156 -175 107z"/>
<path d="M2455 3880 c-226 -49 -391 -229 -411 -448 -10 -111 32 -249 101 -331
20 -22 23 -32 13 -35 -338 -115 -597 -280 -862 -550 -407 -416 -739 -1045
-815 -1546 -7 -41 -14 -90 -17 -107 l-5 -33 -147 0 c-81 0 -162 -4 -181 -10
-75 -21 -107 -87 -76 -153 34 -73 -187 -67 2505 -67 2685 0 2471 -6 2504 65
22 45 20 66 -7 106 -33 49 -70 58 -244 58 -150 1 -153 1 -157 24 -2 12 -10 60
-16 107 -16 116 -60 282 -115 436 -57 159 -201 452 -293 599 -314 497 -748
883 -1158 1030 -44 16 -89 32 -102 37 l-24 8 28 33 c15 17 40 58 55 90 124
262 -13 568 -299 668 -64 23 -214 33 -277 19z m244 -256 c92 -50 141 -133 141
-238 0 -138 -135 -266 -280 -266 -145 0 -280 128 -280 266 0 165 125 279 296
271 54 -3 82 -10 123 -33z m77 -750 c101 -20 182 -48 309 -106 186 -85 339
-194 523 -373 l113 -110 -3 -395 -3 -395 -27 -57 c-39 -84 -104 -149 -190
-189 l-73 -34 -790 -5 c-744 -5 -793 -6 -819 -23 -46 -30 -56 -71 -56 -222 l0
-135 -529 0 -530 0 5 37 c71 513 350 1061 749 1472 130 134 157 157 329 284
136 100 367 207 532 246 137 33 318 34 460 5z"/>
<path d="M460 3807 c-20 -7 -44 -27 -58 -47 -35 -51 -26 -93 37 -174 123 -161
118 -359 -12 -514 -20 -23 -39 -52 -42 -63 -12 -35 4 -84 36 -115 25 -24 39
-29 79 -29 42 0 54 5 85 35 19 19 54 62 76 97 142 218 129 520 -32 730 -62 80
-106 101 -169 80z"/>
</g>
</svg>
