<svg width="16" height="17" viewBox="0 0 16 17" fill="none" xmlns="http://www.w3.org/2000/svg">
<path d="M8.042 16.37C7.558 16.37 7.151 16.216 6.821 15.908C6.513 15.578 6.359 15.171 6.359 14.687V10.265H1.937C1.453 10.265 1.046 10.1 0.716 9.77C0.408 9.44 0.254 9.033 0.254 8.549C0.254 8.065 0.408 7.669 0.716 7.361C1.046 7.031 1.453 6.866 1.937 6.866H6.359V2.444C6.359 1.982 6.524 1.586 6.854 1.256C7.206 0.926 7.602 0.761 8.042 0.761C8.548 0.761 8.955 0.926 9.263 1.256C9.571 1.564 9.725 1.96 9.725 2.444V6.866H14.147C14.609 6.866 15.005 7.031 15.335 7.361C15.687 7.691 15.863 8.087 15.863 8.549C15.863 9.033 15.687 9.44 15.335 9.77C15.005 10.1 14.609 10.265 14.147 10.265H9.725V14.687C9.725 15.171 9.571 15.578 9.263 15.908C8.955 16.216 8.548 16.37 8.042 16.37Z" fill="black"/>
</svg>
