<?xml version="1.0" standalone="no"?>
<!DOCTYPE svg PUBLIC "-//W3C//DTD SVG 20010904//EN"
 "http://www.w3.org/TR/2001/REC-SVG-20010904/DTD/svg10.dtd">
<svg version="1.0" xmlns="http://www.w3.org/2000/svg"
 width="512.000000pt" height="512.000000pt" viewBox="0 0 512.000000 512.000000"
 preserveAspectRatio="xMidYMid meet">

<g transform="translate(0.000000,512.000000) scale(0.100000,-0.100000)"
fill="#000000" stroke="none">
<path d="M2744 4721 c-38 -23 -58 -75 -48 -125 3 -21 2 -36 -3 -36 -25 0 -106
-67 -130 -107 -14 -25 -40 -98 -56 -162 -46 -185 -47 -344 -2 -453 5 -13 0
-18 -22 -23 -139 -28 -257 -93 -374 -206 -81 -78 -149 -180 -149 -223 0 -69
66 -131 130 -123 58 6 61 9 121 89 32 42 70 85 84 94 14 9 39 29 55 44 57 53
117 74 210 75 105 0 154 -21 248 -109 63 -58 152 -168 152 -187 0 -5 -11 -9
-24 -9 -14 0 -39 -12 -57 -27 -72 -61 -78 -152 -24 -348 177 -639 122 -1410
-136 -1927 -22 -43 -39 -90 -39 -105 0 -42 33 -87 79 -110 l42 -21 -61 -40
c-172 -115 -361 -57 -522 159 -57 78 -88 99 -145 99 -67 0 -113 -52 -113 -129
0 -32 10 -53 58 -118 204 -272 479 -377 729 -277 l66 26 126 -31 c217 -54 380
-39 550 49 180 94 309 252 360 440 11 41 38 197 61 345 92 611 133 794 275
1235 80 249 89 292 88 425 -2 248 -93 466 -268 640 -161 161 -349 247 -592
269 -90 9 -143 -5 -177 -45 -44 -52 -30 -143 28 -179 11 -8 66 -17 121 -21
192 -14 348 -88 471 -222 169 -185 216 -427 133 -685 l-11 -34 -33 50 c-98
145 -268 221 -470 209 l-90 -6 -43 132 c-75 234 -171 410 -313 577 -97 114
-131 189 -137 296 -9 163 59 283 260 459 96 85 93 142 -15 250 -96 96 -179
137 -285 142 -64 4 -82 1 -108 -16z"/>
<path d="M1626 3809 c-93 -12 -235 -61 -326 -112 -98 -55 -268 -223 -326 -322
-82 -141 -121 -268 -130 -430 -9 -135 5 -213 76 -429 123 -379 185 -630 245
-1001 84 -515 97 -589 114 -645 71 -226 289 -422 528 -473 44 -9 58 -8 88 6
49 23 82 93 66 140 -17 48 -50 76 -111 94 -190 54 -321 192 -358 373 -6 30
-34 204 -62 385 -80 515 -131 738 -264 1152 -36 111 -70 238 -77 282 -48 313
183 644 506 726 64 16 195 22 217 9 7 -4 10 -3 5 1 -4 5 6 14 23 21 43 19 72
70 66 118 -12 102 -85 130 -280 105z"/>
<path d="M2430 3446 c0 -2 8 -10 18 -17 15 -13 16 -12 3 4 -13 16 -21 21 -21
13z"/>
<path d="M1748 3333 c6 -2 18 -2 25 0 6 3 1 5 -13 5 -14 0 -19 -2 -12 -5z"/>
<path d="M1321 2944 c0 -11 3 -14 6 -6 3 7 2 16 -1 19 -3 4 -6 -2 -5 -13z"/>
<path d="M1793 2915 c-17 -7 -39 -24 -48 -38 -19 -30 -58 -209 -82 -378 -34
-242 -19 -818 23 -900 42 -82 168 -78 209 7 16 34 16 46 4 148 -12 104 -18
432 -11 556 6 95 32 281 52 375 32 146 23 197 -44 229 -41 19 -61 20 -103 1z"/>
<path d="M1981 2854 c0 -11 3 -14 6 -6 3 7 2 16 -1 19 -3 4 -6 -2 -5 -13z"/>
<path d="M1100 2806 c0 -2 8 -10 18 -17 15 -13 16 -12 3 4 -13 16 -21 21 -21
13z"/>
<path d="M2184 2768 l-19 -23 23 19 c21 18 27 26 19 26 -2 0 -12 -10 -23 -22z"/>
<path d="M2093 2733 c9 -2 23 -2 30 0 6 3 -1 5 -18 5 -16 0 -22 -2 -12 -5z"/>
<path d="M1924 2448 l-19 -23 23 19 c21 18 27 26 19 26 -2 0 -12 -10 -23 -22z"/>
<path d="M1910 2286 c0 -2 8 -10 18 -17 15 -13 16 -12 3 4 -13 16 -21 21 -21
13z"/>
</g>
</svg>
