<svg width="22" height="23" viewBox="0 0 22 23" fill="none" xmlns="http://www.w3.org/2000/svg">
<path d="M13.0981 1.10815C12.9756 1.20676 10.8052 3.87522 10.4435 4.37991C10.1984 4.71056 10.3151 5.19785 10.671 5.38348C11.0444 5.57491 12.6663 5.39508 13.9324 5.02382C15.2451 4.63515 16.3128 4.68736 17.3279 5.19205C17.7072 5.37768 17.9172 5.5401 18.3489 5.96358C18.6406 6.25943 18.8857 6.52047 18.8857 6.54948C18.8857 6.57268 18.6173 6.59588 18.2906 6.59588C17.7713 6.60169 17.643 6.61909 17.3571 6.75251C16.9195 6.95555 16.552 7.2978 16.3419 7.70968L16.1727 8.04613L16.1669 9.81543C16.1611 11.6485 16.0852 12.5941 15.8519 13.9805C15.3618 16.8346 14.2883 19.1956 13.1973 19.8221C12.7772 20.0658 12.573 20.089 12.0771 19.9614C11.4703 19.8105 10.5427 19.8105 9.93007 19.9672C9.6792 20.031 9.23579 20.1934 8.94408 20.3268C8.41899 20.5705 8.40149 20.5763 7.77139 20.5763C7.17046 20.5763 7.10628 20.5647 6.73872 20.3906C6.19613 20.1354 5.89275 19.8337 5.26848 18.923C3.71657 16.6722 2.89977 14.6883 2.50887 12.1938C2.38052 11.3817 2.36301 8.93949 2.4797 8.25497C2.63722 7.32101 3.02229 6.55528 3.62905 5.95198C4.66755 4.9136 6.12029 4.51333 7.54968 4.87879C7.97559 4.98901 8.05143 4.99481 8.22063 4.9252C8.489 4.80918 8.62319 4.64095 8.6582 4.37411C8.75155 3.70119 8.06894 3.39954 6.45868 3.41114C5.65355 3.41694 5.49602 3.43435 5.04095 3.56777C3.14481 4.14207 1.76792 5.54591 1.24283 7.43703C0.986125 8.35939 0.916114 10.9002 1.11448 12.217C1.52288 14.9667 2.33384 17.0435 3.9441 19.4509C4.82508 20.7735 5.25098 21.2144 5.99777 21.5856C7.16462 22.1657 8.44816 22.1367 9.72587 21.4986C10.1459 21.2898 10.7877 21.168 11.2486 21.2086C11.657 21.2434 12.0421 21.3652 12.643 21.6379C13.1039 21.8467 13.7865 21.9975 14.2883 21.9975C15.1984 21.9917 16.2544 21.574 16.8787 20.9649C17.2638 20.5937 18.4131 18.9346 18.9615 17.9658C20.1401 15.8775 20.846 13.4411 20.9802 10.9988C21.0385 9.95466 20.9627 8.40579 20.8227 7.70968C20.3851 5.58651 18.7048 3.92163 16.552 3.48075C15.881 3.34153 14.755 3.36473 14.1891 3.52136C13.4481 3.736 12.6138 3.94483 12.5905 3.92743C12.5788 3.91583 12.8589 3.54456 13.2148 3.10369C13.5648 2.66281 13.9207 2.19873 14.0082 2.07691C14.2533 1.71145 14.1949 1.28798 13.8682 1.09655C13.6465 0.963123 13.2789 0.968924 13.0981 1.10815Z" fill="currentColor" stroke="currentColor" stroke-width="0.4"/>
</svg>
