<?xml version="1.0" standalone="no"?>
<!DOCTYPE svg PUBLIC "-//W3C//DTD SVG 20010904//EN"
 "http://www.w3.org/TR/2001/REC-SVG-20010904/DTD/svg10.dtd">
<svg version="1.0" xmlns="http://www.w3.org/2000/svg"
 width="512.000000pt" height="512.000000pt" viewBox="0 0 512.000000 512.000000"
 preserveAspectRatio="xMidYMid meet">

<g transform="translate(0.000000,512.000000) scale(0.100000,-0.100000)"
fill="#000000" stroke="none">
<path d="M2675 4963 c-409 -35 -799 -158 -1166 -369 l-76 -44 -135 0 c-196 0
-287 -33 -395 -141 -217 -218 -174 -586 88 -747 108 -66 195 -75 496 -54 262
19 266 21 299 84 19 37 17 67 -6 106 -37 61 -58 64 -326 45 -218 -15 -241 -15
-288 0 -104 33 -170 120 -169 226 0 96 50 177 138 224 l40 22 1740 3 c1677 2
1741 2 1774 -16 77 -41 90 -135 27 -198 -26 -26 -43 -33 -87 -38 -49 -6 -658
-49 -1784 -126 -242 -17 -455 -33 -473 -36 -112 -18 -138 -171 -37 -219 36
-16 71 -14 1088 58 579 41 1055 72 1059 68 11 -10 120 -508 162 -736 163 -888
176 -1556 45 -2210 -17 -82 -28 -161 -25 -175 2 -14 33 -73 67 -130 97 -163
106 -211 53 -261 l-26 -24 -1861 -3 c-1024 -1 -1877 0 -1896 3 -44 8 -81 49
-81 89 0 22 15 50 51 96 81 105 129 181 129 206 0 13 -13 90 -29 171 -56 280
-66 394 -66 773 1 420 16 595 111 1264 20 137 33 263 30 281 -9 48 -58 90
-105 90 -49 0 -89 -21 -107 -56 -13 -25 -57 -316 -103 -679 -86 -674 -83
-1275 7 -1714 l19 -90 -64 -85 c-83 -113 -106 -173 -101 -268 l3 -73 -65 0
c-47 0 -74 -6 -97 -20 -63 -38 -66 -142 -6 -190 26 -20 35 -20 2144 -20 l2118
0 58 22 c78 29 152 103 182 183 19 49 22 75 19 140 -5 89 -31 159 -103 271
l-38 59 12 60 c74 382 95 603 94 995 0 562 -71 1103 -244 1869 -21 96 -39 178
-39 181 0 4 29 22 64 39 129 63 199 178 200 326 0 108 -33 183 -115 259 -92
85 -131 96 -354 96 l-184 0 -120 69 c-327 187 -693 302 -1090 341 -95 9 -362
11 -456 3z"/>
<path d="M103 260 c-34 -21 -63 -66 -63 -100 0 -54 65 -120 118 -120 57 0 122
64 122 120 0 56 -65 120 -122 120 -13 0 -37 -9 -55 -20z"/>
</g>
</svg>
