<?xml version="1.0" standalone="no"?>
<!DOCTYPE svg PUBLIC "-//W3C//DTD SVG 20010904//EN"
 "http://www.w3.org/TR/2001/REC-SVG-20010904/DTD/svg10.dtd">
<svg version="1.0" xmlns="http://www.w3.org/2000/svg"
 width="512.000000pt" height="512.000000pt" viewBox="0 0 512.000000 512.000000"
 preserveAspectRatio="xMidYMid meet">

<g transform="translate(0.000000,512.000000) scale(0.100000,-0.100000)"
fill="#000000" stroke="none">
<path d="M2079 4525 c-243 -49 -671 -252 -729 -347 -34 -56 -19 -124 35 -158
54 -34 91 -27 191 37 224 142 496 243 659 243 125 0 231 -38 312 -113 72 -66
86 -103 92 -242 8 -162 9 -163 143 -211 76 -27 149 -66 167 -88 8 -10 -8 -32
-67 -93 -148 -154 -240 -358 -260 -579 l-7 -78 -70 -26 c-77 -29 -165 -72
-207 -101 -14 -11 -29 -19 -32 -19 -3 0 -6 44 -6 98 0 231 -98 426 -285 569
-119 91 -306 173 -469 205 l-69 14 -71 95 c-115 150 -247 249 -381 284 -70 18
-207 20 -273 4 -119 -29 -281 -127 -370 -223 -49 -53 -59 -84 -43 -136 10 -36
20 -43 124 -98 124 -67 137 -77 166 -142 25 -54 26 -106 6 -174 -77 -259 -104
-403 -112 -611 -28 -712 325 -1385 933 -1778 186 -120 464 -233 684 -276 917
-180 1818 273 2224 1119 156 325 227 737 185 1070 -30 236 -27 457 6 585 29
111 71 185 141 250 70 65 87 104 73 160 -11 40 -46 72 -152 139 -255 159 -500
177 -698 51 l-54 -34 -39 38 c-33 33 -37 41 -27 59 14 27 14 74 0 106 -13 27
-82 84 -188 155 -83 56 -263 142 -377 180 -76 26 -96 29 -126 20 -53 -14 -88
-60 -88 -114 0 -67 29 -94 152 -139 57 -21 146 -60 198 -87 92 -48 230 -141
230 -156 0 -5 -20 -21 -45 -36 -25 -16 -62 -48 -83 -72 -32 -36 -47 -45 -97
-55 -33 -7 -91 -23 -129 -37 l-68 -25 -42 40 c-46 44 -139 107 -203 136 -44
19 -53 36 -53 97 0 57 -36 159 -78 225 -113 174 -339 286 -574 283 -46 0 -113
-7 -149 -14z m-1061 -761 c74 -36 165 -127 237 -238 66 -100 71 -104 225 -136
194 -41 338 -110 445 -215 129 -126 163 -293 104 -505 -23 -84 -24 -148 -4
-177 15 -21 13 -28 -23 -100 -71 -142 -107 -281 -100 -388 9 -133 90 -257 211
-322 45 -24 53 -33 58 -65 16 -103 116 -147 195 -86 44 36 57 79 43 151 -18
92 -16 279 5 357 27 105 70 182 136 243 101 94 229 140 422 153 120 8 149 20
173 70 17 36 17 42 0 128 -10 51 -18 137 -18 196 0 327 153 481 500 506 122 9
144 23 187 118 72 157 158 259 261 308 50 23 73 28 135 28 75 0 182 -29 228
-61 20 -14 20 -16 -18 -72 -93 -138 -133 -309 -134 -570 -1 -153 -3 -176 -16
-171 -8 4 -37 9 -65 11 -94 8 -159 -51 -170 -155 -12 -111 -55 -313 -90 -416
-164 -489 -516 -889 -980 -1112 -240 -115 -445 -167 -725 -185 -96 -6 -187
-16 -203 -21 -38 -15 -85 -71 -93 -113 -8 -43 -6 -44 -164 31 -365 174 -644
446 -823 804 -218 433 -253 877 -107 1359 47 158 52 240 20 344 -26 84 -90
179 -151 225 -27 20 -49 39 -49 43 0 8 43 28 110 50 76 26 162 20 238 -17z"/>
</g>
</svg>
