<?xml version="1.0" standalone="no"?>
<!DOCTYPE svg PUBLIC "-//W3C//DTD SVG 20010904//EN"
 "http://www.w3.org/TR/2001/REC-SVG-20010904/DTD/svg10.dtd">
<svg version="1.0" xmlns="http://www.w3.org/2000/svg"
 width="512.000000pt" height="512.000000pt" viewBox="0 0 512.000000 512.000000"
 preserveAspectRatio="xMidYMid meet">

<g transform="translate(50,460) scale(0.08,-0.08)"
fill="#000000" stroke="none">
<path d="M1511 4654 c-58 -29 -106 -85 -120 -143 -5 -20 -21 -191 -36 -381
-14 -190 -28 -351 -30 -357 -3 -9 -25 -13 -65 -13 -121 0 -219 -60 -271 -166
-29 -59 -32 -74 -37 -187 l-5 -122 -49 -52 c-56 -60 -103 -154 -118 -234 -7
-36 -9 -450 -8 -1195 l3 -1139 24 -49 c31 -63 83 -115 146 -146 l50 -25 625 0
625 0 45 23 c73 36 116 78 149 144 l31 61 0 1158 c0 1130 0 1158 -20 1222 -22
71 -84 172 -129 210 -28 24 -29 26 -32 148 -4 111 -7 130 -32 181 -52 106
-137 159 -264 166 -46 2 -83 7 -83 11 1 52 -53 698 -61 731 -10 43 -45 99 -79
128 -67 57 -175 68 -259 26z m158 -836 l1 -48 -51 0 -52 0 6 58 c4 31 14 161
23 287 9 127 18 237 22 245 5 15 50 -452 51 -542z m364 -316 c11 -10 17 -30
17 -58 l0 -44 -430 -2 -430 -3 0 45 c0 49 6 62 33 77 11 6 162 8 405 5 330 -4
390 -6 405 -20z m-131 -395 c60 -97 58 -44 58 -1276 0 -619 -4 -1132 -8 -1139
-7 -10 -107 -12 -467 -10 l-459 3 -13 25 c-10 20 -12 252 -10 1140 2 1005 4
1119 18 1151 24 52 73 104 122 128 40 20 57 21 387 21 l345 0 27 -43z"/>
<path d="M3433 4646 c-58 -27 -107 -86 -122 -145 -8 -30 -61 -667 -61 -723 0
-15 -10 -18 -65 -18 -126 0 -223 -58 -276 -166 -29 -59 -32 -74 -37 -187 l-5
-122 -49 -52 c-56 -60 -103 -154 -118 -234 -7 -36 -9 -450 -8 -1195 l3 -1139
24 -49 c31 -63 83 -115 146 -146 l50 -25 625 0 625 0 45 23 c73 36 116 78 149
144 l31 61 0 1158 c0 1130 0 1158 -20 1222 -22 71 -84 172 -129 210 -28 24
-29 26 -32 148 -4 111 -7 130 -32 181 -52 106 -137 159 -264 166 -68 4 -83 7
-83 21 1 64 -53 685 -62 719 -36 142 -197 212 -335 148z m131 -513 c10 -131
20 -268 23 -305 l6 -68 -53 0 -53 0 6 68 c3 37 13 174 23 305 10 130 21 237
24 237 3 0 14 -107 24 -237z m389 -631 c11 -10 17 -30 17 -59 l0 -43 -430 0
-430 0 0 43 c0 46 6 59 33 74 11 6 162 8 405 5 330 -4 390 -6 405 -20z m-113
-426 l35 -69 0 -1161 0 -1161 -457 -3 c-389 -2 -459 0 -471 12 -12 13 -16 123
-22 723 -4 389 -4 899 0 1133 6 399 8 427 27 464 26 50 63 87 113 114 39 21
52 21 390 19 l350 -2 35 -69z"/>
</g>
</svg>
