<?xml version="1.0" standalone="no"?>
<!DOCTYPE svg PUBLIC "-//W3C//DTD SVG 20010904//EN"
 "http://www.w3.org/TR/2001/REC-SVG-20010904/DTD/svg10.dtd">
<svg version="1.0" xmlns="http://www.w3.org/2000/svg"
 width="512.000000pt" height="512.000000pt" viewBox="0 0 512.000000 512.000000"
 preserveAspectRatio="xMidYMid meet">

<g transform="translate(0.000000,512.000000) scale(0.100000,-0.100000)"
fill="#000000" stroke="none">
<path d="M2183 4624 c-33 -16 -63 -66 -63 -104 0 -39 30 -88 65 -104 28 -14
85 -16 380 -16 380 0 390 1 420 60 31 60 10 137 -45 165 -44 23 -710 22 -757
-1z"/>
<path d="M2820 4262 c-56 -28 -70 -68 -70 -202 0 -180 28 -381 85 -602 l7 -28
-164 0 -165 0 -22 -84 c-23 -86 -91 -259 -180 -453 -28 -62 -51 -117 -51 -123
0 -7 96 -10 295 -10 l294 0 10 -37 c46 -176 57 -236 71 -392 12 -129 0 -438
-25 -637 -8 -66 -15 -122 -15 -126 0 -5 -158 -8 -350 -8 l-350 0 5 -22 c13
-61 25 -145 25 -175 0 -95 -95 -152 -180 -108 -43 22 -57 59 -80 197 -40 255
-53 417 -54 683 -1 236 1 271 23 375 33 161 96 348 181 535 125 276 163 390
194 580 30 189 30 192 -3 225 -25 25 -38 30 -78 30 -50 0 -85 -17 -102 -49 -6
-9 -21 -75 -36 -145 -36 -182 -86 -326 -177 -521 -139 -295 -216 -567 -238
-838 -18 -221 10 -602 71 -982 17 -104 33 -244 36 -310 5 -132 5 -136 -71
-428 -57 -221 -60 -291 -18 -382 33 -68 92 -127 161 -159 46 -21 50 -21 991
-24 869 -3 948 -2 977 14 59 31 80 113 44 168 -34 51 -52 55 -236 56 l-170 0
-1 88 c-1 87 -18 168 -90 417 -40 136 -38 268 9 555 52 323 67 474 74 741 7
271 -5 392 -62 614 -43 166 -75 252 -179 478 -154 335 -216 596 -216 911 l0
118 -39 39 c-44 44 -75 49 -131 21z m-631 -3326 c41 -22 61 -59 61 -112 0 -39
-5 -51 -34 -80 -29 -29 -41 -34 -81 -34 -81 0 -134 59 -122 137 14 81 103 126
176 89z m307 -450 c30 -30 34 -40 34 -86 0 -46 -4 -56 -34 -86 l-34 -34 -255
0 c-141 0 -263 3 -272 6 -8 4 -23 20 -31 36 -14 27 -14 37 1 107 10 42 19 79
22 84 2 4 124 7 270 7 l265 0 34 -34z"/>
<path d="M4315 271 c-45 -20 -70 -60 -70 -112 0 -42 5 -53 33 -81 47 -48 117
-48 164 0 28 28 33 39 33 82 0 42 -5 54 -31 81 -33 33 -92 46 -129 30z"/>
</g>
</svg>
