<?xml version="1.0" standalone="no"?>
<!DOCTYPE svg PUBLIC "-//W3C//DTD SVG 20010904//EN"
 "http://www.w3.org/TR/2001/REC-SVG-20010904/DTD/svg10.dtd">
<svg version="1.0" xmlns="http://www.w3.org/2000/svg"
 width="512.000000pt" height="512.000000pt" viewBox="0 0 512.000000 512.000000"
 preserveAspectRatio="xMidYMid meet">

<g transform="translate(0.000000,512.000000) scale(0.100000,-0.100000)"
fill="#000000" stroke="none">
<path d="M2695 4088 c-462 -46 -959 -266 -1405 -623 -244 -194 -641 -621 -756
-813 -19 -31 -47 -93 -62 -137 l-27 -80 0 -440 c0 -483 2 -506 60 -630 67
-145 175 -253 320 -320 150 -70 299 -76 494 -21 184 53 231 60 401 60 292 0
435 -49 845 -289 173 -102 238 -132 367 -173 141 -45 226 -57 403 -56 179 0
278 15 428 66 439 147 778 519 881 969 29 126 35 241 37 699 1 401 -1 477 -16
549 -93 465 -397 846 -847 1061 -317 151 -733 218 -1123 178z m475 -249 c652
-72 1133 -466 1251 -1024 17 -78 19 -133 19 -404 l0 -313 -38 -72 c-215 -410
-675 -668 -1142 -642 -251 14 -362 55 -730 266 -364 209 -561 268 -865 257
-150 -5 -239 -21 -393 -68 -175 -54 -335 -37 -468 49 -32 22 -72 53 -87 69
l-28 31 3 218 3 219 31 65 c75 154 485 601 729 793 561 444 1113 623 1715 556z"/>
<path d="M2755 3650 c-388 -32 -812 -217 -1195 -519 -128 -101 -437 -411 -541
-541 -136 -171 -143 -183 -147 -258 -5 -86 23 -143 90 -188 73 -49 115 -51
249 -9 332 105 702 104 1024 -2 128 -42 222 -86 443 -210 258 -145 329 -178
434 -203 430 -103 863 104 1047 502 64 136 76 200 75 378 -1 186 -19 263 -94
415 -183 371 -570 595 -1093 635 -143 11 -158 11 -292 0z m733 -734 c63 -32
127 -99 160 -166 22 -46 26 -69 27 -140 0 -77 -3 -92 -33 -152 -38 -77 -91
-128 -172 -167 -46 -21 -68 -25 -140 -25 -104 1 -157 22 -231 91 -79 74 -111
149 -110 259 2 250 275 414 499 300z"/>
</g>
</svg>
