<?xml version="1.0" standalone="no"?>
<!DOCTYPE svg PUBLIC "-//W3C//DTD SVG 20010904//EN"
 "http://www.w3.org/TR/2001/REC-SVG-20010904/DTD/svg10.dtd">
<svg version="1.0" xmlns="http://www.w3.org/2000/svg"
 width="512.000000pt" height="512.000000pt" viewBox="0 0 512.000000 512.000000"
 preserveAspectRatio="xMidYMid meet">

<g transform="translate(0.000000,512.000000) scale(0.100000,-0.100000)"
fill="#000000" stroke="none">
<path d="M2511 4509 c-39 -15 -165 -148 -219 -232 -28 -42 -61 -104 -74 -138
-16 -43 -27 -59 -38 -55 -8 3 -46 17 -85 31 -97 37 -200 55 -311 55 -111 0
-155 -15 -184 -62 -19 -30 -21 -46 -18 -173 3 -159 12 -182 78 -209 50 -20 99
-7 135 36 24 28 26 38 24 102 l-2 71 48 -3 c82 -6 194 -48 285 -107 70 -45 92
-55 128 -55 59 0 112 49 112 103 0 85 82 273 146 337 l25 25 35 -40 c50 -57
100 -163 119 -252 20 -97 41 -140 76 -159 47 -24 79 -16 173 40 100 60 185 92
270 102 l56 7 0 -29 c-1 -88 -66 -264 -98 -264 -26 0 -69 -35 -88 -72 -19 -37
-12 -85 18 -123 27 -35 48 -42 166 -55 257 -28 514 -141 707 -310 68 -60 87
-95 120 -225 79 -310 45 -762 -81 -1088 -60 -157 -129 -265 -236 -375 -186
-190 -421 -286 -753 -308 -126 -8 -190 7 -321 76 -127 67 -143 67 -281 -10
-228 -127 -331 -154 -593 -155 -181 0 -198 -2 -237 -23 -23 -12 -48 -31 -56
-42 -14 -20 -15 -20 -101 16 -254 106 -474 303 -612 546 -165 290 -208 666
-112 982 31 104 115 279 183 381 21 33 84 105 140 161 166 166 360 280 579
340 112 31 375 44 496 25 208 -33 493 -117 628 -185 33 -17 68 -26 98 -26 39
0 51 5 80 34 29 29 34 41 34 80 0 73 -20 93 -155 157 -127 60 -157 71 -355
121 -275 69 -284 70 -480 71 -141 1 -207 -3 -275 -16 -335 -66 -604 -212 -835
-453 -144 -151 -236 -288 -311 -469 -118 -281 -146 -602 -80 -905 113 -517
486 -934 990 -1105 258 -88 500 -104 786 -53 169 31 440 31 610 0 230 -41 415
-39 626 8 596 133 1058 618 1165 1225 26 148 24 387 -4 530 -116 592 -557
1054 -1149 1205 l-42 11 19 48 c49 125 67 372 32 441 -26 53 -69 70 -182 70
-117 0 -204 -14 -295 -46 -116 -42 -106 -44 -140 33 -42 97 -113 198 -193 275
-89 86 -129 102 -191 77z"/>
</g>
</svg>
