<?xml version="1.0" standalone="no"?>
<!DOCTYPE svg PUBLIC "-//W3C//DTD SVG 20010904//EN"
 "http://www.w3.org/TR/2001/REC-SVG-20010904/DTD/svg10.dtd">
<svg version="1.0" xmlns="http://www.w3.org/2000/svg"
 width="512.000000pt" height="512.000000pt" viewBox="0 0 512.000000 512.000000"
 preserveAspectRatio="xMidYMid meet">

<g transform="translate(0.000000,512.000000) scale(0.100000,-0.100000)"
fill="#000000" stroke="none">
<path d="M1815 4726 c-311 -73 -545 -138 -613 -171 -96 -46 -183 -107 -253
-181 -76 -81 -673 -976 -695 -1044 -30 -92 -5 -210 62 -289 45 -54 404 -288
471 -307 96 -28 209 -2 286 66 l37 32 2 -1119 c3 -1113 3 -1118 24 -1164 31
-67 78 -114 146 -149 l61 -30 1218 0 1217 0 63 33 c40 20 75 48 96 75 66 87
63 31 63 1250 l0 1104 37 -32 c73 -64 171 -90 266 -70 44 9 95 36 238 130 101
65 202 135 225 154 51 43 91 122 100 197 12 107 1 129 -338 637 -336 505 -378
557 -520 649 -108 71 -171 93 -490 175 l-283 73 -660 2 -660 2 -100 -23z
m1225 -223 c0 -37 -59 -141 -114 -200 -92 -99 -176 -145 -303 -163 -198 -28
-416 89 -508 273 -59 118 -107 107 445 107 450 0 480 -1 480 -17z m-1140 -193
c92 -180 245 -312 435 -376 61 -20 106 -28 190 -31 136 -6 229 12 340 66 193
93 327 243 397 444 12 37 29 67 36 67 7 0 113 -25 235 -56 405 -101 395 -92
800 -698 165 -248 303 -464 305 -479 3 -17 -2 -35 -12 -46 -10 -10 -92 -69
-184 -130 -112 -74 -177 -111 -195 -111 -33 0 -38 6 -172 174 -63 79 -113 131
-134 142 -40 19 -94 14 -124 -13 -49 -44 -47 2 -47 -1349 0 -1165 -1 -1269
-17 -1286 -15 -17 -65 -18 -1191 -18 -1080 0 -1177 1 -1194 17 -17 15 -18 68
-18 1285 0 1397 4 1318 -62 1358 -41 25 -84 25 -124 1 -17 -10 -70 -67 -119
-127 -123 -151 -155 -184 -182 -184 -32 0 -383 235 -385 258 0 9 -1 25 0 35 3
28 596 909 647 961 110 109 182 142 480 216 l230 57 21 -66 c11 -36 31 -86 44
-111z"/>
</g>
</svg>
